<svg width="17" height="17" viewBox="0 0 17 17" fill="none" xmlns="http://www.w3.org/2000/svg">
<path d="M8.1 0C3.63366 0 0 3.63366 0 8.1C0 12.5663 3.63366 16.2 8.1 16.2C12.5663 16.2 16.2 12.5663 16.2 8.1C16.2 3.63366 12.5663 0 8.1 0ZM8.91 12.0812V12.96H7.29V12.0852C5.39541 11.7879 4.86 10.4636 4.86 9.72H6.48C6.48891 9.83583 6.60879 10.53 8.1 10.53C9.2178 10.53 9.72 10.0562 9.72 9.72C9.72 9.45756 9.72 8.91 8.1 8.91C5.2812 8.91 4.86 7.3872 4.86 6.48C4.86 5.43672 5.69349 4.38696 7.29 4.11885V3.24972H8.91V4.14801C10.3145 4.48011 10.854 5.64894 10.854 6.48H10.044L9.234 6.49458C9.22266 6.18678 9.05985 5.67 8.1 5.67C7.04781 5.67 6.48 6.08796 6.48 6.48C6.48 6.78294 6.48 7.29 8.1 7.29C10.9188 7.29 11.34 8.8128 11.34 9.72C11.34 10.7633 10.5065 11.813 8.91 12.0812Z" fill="#1E9CEA"/>
</svg>
