<svg width="14" height="14" viewBox="0 0 14 14" fill="none" xmlns="http://www.w3.org/2000/svg">
<path d="M5.41775 0.0130959C5.93772 0.099756 6.29033 0.592822 6.20367 1.11278L5.91082 2.86989H8.75268L9.09633 0.799014C9.18299 0.279053 9.67605 -0.0735643 10.196 0.0130959C10.716 0.099756 11.0686 0.592822 10.9819 1.11278L10.6921 2.86989H12.4313C12.9602 2.86989 13.3875 3.29722 13.3875 3.82614C13.3875 4.35507 12.9602 4.78239 12.4313 4.78239H10.3723L9.73582 8.60739H11.475C12.0039 8.60739 12.4313 9.03472 12.4313 9.56364C12.4313 10.0926 12.0039 10.5199 11.475 10.5199H9.41607L9.07242 12.5908C8.98576 13.1107 8.49269 13.4634 7.97273 13.3767C7.45277 13.29 7.10016 12.797 7.18682 12.277L7.47967 10.5229H4.63781L4.29416 12.5938C4.2075 13.1137 3.71443 13.4663 3.19447 13.3797C2.67451 13.293 2.32189 12.8 2.40855 12.28L2.69543 10.5199H0.95625C0.427324 10.5199 0 10.0926 0 9.56364C0 9.03472 0.427324 8.60739 0.95625 8.60739H3.01518L3.65168 4.78239H1.9125C1.38357 4.78239 0.95625 4.35507 0.95625 3.82614C0.95625 3.29722 1.38357 2.86989 1.9125 2.86989H3.97143L4.31508 0.799014C4.40174 0.279053 4.8948 -0.0735643 5.41477 0.0130959H5.41775ZM5.59107 4.78239L4.95457 8.60739H7.79643L8.43293 4.78239H5.59107Z" fill="#9A9B9B"/>
</svg>
