<svg width="17" height="17" viewBox="0 0 17 17" fill="none" xmlns="http://www.w3.org/2000/svg">
<path d="M13.9329 3.55502C13.9285 3.54661 13.9213 3.54002 13.9126 3.53643C12.8999 3.07181 11.8313 2.74051 10.7334 2.5508C10.7234 2.54895 10.7131 2.55028 10.704 2.55462C10.6948 2.55896 10.6872 2.56608 10.6823 2.57497C10.5368 2.83908 10.4047 3.11036 10.2865 3.38778C9.10309 3.20814 7.8993 3.20814 6.71585 3.38778C6.5969 3.10966 6.46268 2.83831 6.31383 2.57497C6.30872 2.56628 6.30111 2.55932 6.292 2.55501C6.28288 2.5507 6.27268 2.54923 6.26272 2.5508C5.16473 2.74011 4.09602 3.07144 3.08351 3.53646C3.07484 3.54013 3.06753 3.5464 3.06258 3.55441C1.03774 6.57823 0.483065 9.52771 0.755171 12.4407C0.755937 12.4478 0.75813 12.4547 0.761621 12.461C0.765112 12.4673 0.769829 12.4728 0.775492 12.4772C1.95453 13.3502 3.27331 14.0165 4.67553 14.4478C4.68541 14.4508 4.69595 14.4507 4.70575 14.4474C4.71554 14.4442 4.72412 14.4381 4.73033 14.4299C5.0315 14.0201 5.29835 13.5862 5.52819 13.1325C5.53134 13.1263 5.53315 13.1195 5.53348 13.1125C5.53381 13.1055 5.53265 13.0985 5.5301 13.0921C5.52754 13.0856 5.52364 13.0797 5.51864 13.0748C5.51365 13.0699 5.50767 13.0662 5.50112 13.0638C5.08031 12.9027 4.67291 12.7087 4.28275 12.4833C4.27566 12.4791 4.26971 12.4733 4.26542 12.4663C4.26113 12.4593 4.25863 12.4513 4.25814 12.4431C4.25766 12.4349 4.2592 12.4267 4.26263 12.4192C4.26607 12.4117 4.27129 12.4052 4.27784 12.4003C4.3597 12.3389 4.44162 12.2751 4.51979 12.2107C4.52674 12.205 4.53514 12.2013 4.54406 12.2001C4.55298 12.1989 4.56205 12.2002 4.57026 12.2039C7.12635 13.3704 9.89365 13.3704 12.4195 12.2039C12.4277 12.2 12.4369 12.1985 12.4459 12.1996C12.455 12.2007 12.4635 12.2043 12.4706 12.2101C12.5488 12.2745 12.6307 12.3389 12.7132 12.4003C12.7197 12.4052 12.725 12.4116 12.7285 12.4191C12.732 12.4265 12.7336 12.4347 12.7332 12.4429C12.7327 12.4511 12.7303 12.4591 12.7261 12.4661C12.7218 12.4732 12.7159 12.4791 12.7089 12.4833C12.3196 12.7105 11.9118 12.9045 11.4899 13.0631C11.4833 13.0656 11.4774 13.0695 11.4724 13.0744C11.4675 13.0794 11.4636 13.0853 11.4611 13.0919C11.4586 13.0984 11.4575 13.1054 11.4579 13.1124C11.4583 13.1194 11.4601 13.1263 11.4633 13.1325C11.697 13.5836 11.9635 14.017 12.2606 14.4292C12.2666 14.4376 12.2752 14.444 12.285 14.4473C12.2948 14.4506 12.3055 14.4508 12.3154 14.4477C13.7201 14.0179 15.0412 13.3515 16.2217 12.4772C16.2275 12.473 16.2323 12.4676 16.2358 12.4614C16.2393 12.4552 16.2414 12.4484 16.242 12.4413C16.5678 9.0736 15.6967 6.14829 13.9329 3.55502ZM5.90992 10.667C5.14035 10.667 4.50625 9.96076 4.50625 9.09344C4.50625 8.22612 5.12805 7.51985 5.90992 7.51985C6.69789 7.51985 7.32586 8.23225 7.31356 9.09338C7.31356 9.96076 6.69173 10.667 5.90992 10.667ZM11.0997 10.667C10.3302 10.667 9.69606 9.96076 9.69606 9.09344C9.69606 8.22612 10.3179 7.51985 11.0997 7.51985C11.8877 7.51985 12.5157 8.23225 12.5034 9.09338C12.5034 9.96076 11.8877 10.667 11.0997 10.667Z" fill="#767A82"/>
</svg>
