<svg width="236" height="284" viewBox="0 0 236 284" fill="none" xmlns="http://www.w3.org/2000/svg">
<g clip-path="url(#clip0_3_1136)">
<rect width="235.9" height="283.5" rx="11.2" fill="#1F1F1F"/>
<rect width="235.9" height="283.5" rx="11.2" fill="#2E97D6" fill-opacity="0.03"/>
<g opacity="0.05" clip-path="url(#clip1_3_1136)">
<mask id="mask0_3_1136" style="mask-type:luminance" maskUnits="userSpaceOnUse" x="-66" y="-12" width="358" height="342">
<path d="M291.9 -11.9H-65.1001V329.7H291.9V-11.9Z" fill="white"/>
</mask>
<g mask="url(#mask0_3_1136)">
<g filter="url(#filter0_d_3_1136)">
<path d="M183.787 -53.6513L254.419 -25.7272L77.6913 420.745L7.05966 392.821L183.787 -53.6513Z" fill="#82DF5A"/>
<path d="M183.787 -53.6513L254.419 -25.7272L77.6913 420.745L7.05966 392.821L183.787 -53.6513Z" fill="url(#paint0_linear_3_1136)"/>
<path d="M183.787 -53.6513L254.419 -25.7272L77.6913 420.745L7.05966 392.821L183.787 -53.6513Z" fill="url(#paint1_linear_3_1136)"/>
</g>
<g filter="url(#filter1_d_3_1136)">
<path d="M60.3562 -84.0156L130.988 -56.0916L-45.7396 390.381L-116.371 362.457L60.3562 -84.0156Z" fill="#82DF5A"/>
<path d="M60.3562 -84.0156L130.988 -56.0916L-45.7396 390.381L-116.371 362.457L60.3562 -84.0156Z" fill="url(#paint2_linear_3_1136)"/>
<path d="M60.3562 -84.0156L130.988 -56.0916L-45.7396 390.381L-116.371 362.457L60.3562 -84.0156Z" fill="url(#paint3_linear_3_1136)"/>
</g>
</g>
</g>
<g opacity="0.56" filter="url(#filter2_f_3_1136)">
<ellipse cx="121.45" cy="149.1" rx="61.95" ry="6.3" fill="#1F8FE4"/>
</g>
<g opacity="0.5" filter="url(#filter3_f_3_1136)">
<ellipse cx="113.4" cy="284.2" rx="97.3" ry="81.2" fill="#1E9CEA"/>
</g>
<mask id="path-12-inside-1_3_1136" fill="white">
<path d="M249.2 0.349976H9.85857C4.4138 0.349976 -4.57764e-05 4.76383 -4.57764e-05 10.2086V273.991C-4.57764e-05 279.436 4.4138 283.85 9.85857 283.85H249.2V0.349976Z"/>
</mask>
<path d="M249.2 0.349976H-4.57764e-05H249.2ZM-1.40842 273.991C-1.40842 280.214 3.63599 285.258 9.85857 285.258H249.2V282.442H9.85857C5.19164 282.442 1.40833 278.658 1.40833 273.991H-1.40842ZM249.2 283.85V0.349976V283.85ZM9.85857 0.349976C3.63599 0.349976 -1.40842 5.39438 -1.40842 11.617V273.991C-1.40842 280.214 3.63599 285.258 9.85857 285.258V282.442C5.19164 282.442 1.40833 278.658 1.40833 273.991V10.2086C1.40833 4.76383 5.19164 0.349976 9.85857 0.349976Z" fill="url(#paint4_linear_3_1136)" mask="url(#path-12-inside-1_3_1136)"/>
<mask id="path-14-inside-2_3_1136" fill="white">
<path d="M0 283.85H226.041C231.486 283.85 235.9 279.436 235.9 273.991V10.2086C235.9 4.76382 231.486 0.349976 226.041 0.349976H0V283.85Z"/>
</mask>
<path d="M0 283.85H235.9H0ZM237.308 10.2086C237.308 3.98599 232.264 -1.05841 226.041 -1.05841H0V1.75836H226.041C230.708 1.75836 234.492 5.54166 234.492 10.2086H237.308ZM0 0.349976V283.85V0.349976ZM226.041 283.85C232.264 283.85 237.308 278.806 237.308 272.583V10.2086C237.308 3.98599 232.264 -1.05841 226.041 -1.05841V1.75836C230.708 1.75836 234.492 5.54166 234.492 10.2086V273.991C234.492 279.436 230.708 283.85 226.041 283.85Z" fill="url(#paint5_linear_3_1136)" mask="url(#path-14-inside-2_3_1136)"/>
</g>
<rect x="0.7" y="0.7" width="234.5" height="282.1" rx="10.5" stroke="white" stroke-opacity="0.08" stroke-width="1.4"/>
<rect x="0.7" y="0.7" width="234.5" height="282.1" rx="10.5" stroke="#2E97D6" stroke-opacity="0.1" stroke-width="1.4"/>
<defs>
<filter id="filter0_d_3_1136" x="1.57623" y="-53.6513" width="258.326" height="485.363" filterUnits="userSpaceOnUse" color-interpolation-filters="sRGB">
<feFlood flood-opacity="0" result="BackgroundImageFix"/>
<feColorMatrix in="SourceAlpha" type="matrix" values="0 0 0 0 0 0 0 0 0 0 0 0 0 0 0 0 0 0 127 0" result="hardAlpha"/>
<feOffset dy="5.48333"/>
<feGaussianBlur stdDeviation="2.74167"/>
<feComposite in2="hardAlpha" operator="out"/>
<feColorMatrix type="matrix" values="0 0 0 0 0 0 0 0 0 0 0 0 0 0 0 0 0 0 0.25 0"/>
<feBlend mode="normal" in2="BackgroundImageFix" result="effect1_dropShadow_3_1136"/>
<feBlend mode="normal" in="SourceGraphic" in2="effect1_dropShadow_3_1136" result="shape"/>
</filter>
<filter id="filter1_d_3_1136" x="-121.855" y="-84.0156" width="258.326" height="485.363" filterUnits="userSpaceOnUse" color-interpolation-filters="sRGB">
<feFlood flood-opacity="0" result="BackgroundImageFix"/>
<feColorMatrix in="SourceAlpha" type="matrix" values="0 0 0 0 0 0 0 0 0 0 0 0 0 0 0 0 0 0 127 0" result="hardAlpha"/>
<feOffset dy="5.48333"/>
<feGaussianBlur stdDeviation="2.74167"/>
<feComposite in2="hardAlpha" operator="out"/>
<feColorMatrix type="matrix" values="0 0 0 0 0 0 0 0 0 0 0 0 0 0 0 0 0 0 0.25 0"/>
<feBlend mode="normal" in2="BackgroundImageFix" result="effect1_dropShadow_3_1136"/>
<feBlend mode="normal" in="SourceGraphic" in2="effect1_dropShadow_3_1136" result="shape"/>
</filter>
<filter id="filter2_f_3_1136" x="26.88" y="110.18" width="189.14" height="77.84" filterUnits="userSpaceOnUse" color-interpolation-filters="sRGB">
<feFlood flood-opacity="0" result="BackgroundImageFix"/>
<feBlend mode="normal" in="SourceGraphic" in2="BackgroundImageFix" result="shape"/>
<feGaussianBlur stdDeviation="16.31" result="effect1_foregroundBlur_3_1136"/>
</filter>
<filter id="filter3_f_3_1136" x="-86.7299" y="100.17" width="400.26" height="368.06" filterUnits="userSpaceOnUse" color-interpolation-filters="sRGB">
<feFlood flood-opacity="0" result="BackgroundImageFix"/>
<feBlend mode="normal" in="SourceGraphic" in2="BackgroundImageFix" result="shape"/>
<feGaussianBlur stdDeviation="51.415" result="effect1_foregroundBlur_3_1136"/>
</filter>
<linearGradient id="paint0_linear_3_1136" x1="166.055" y1="197.509" x2="95.435" y2="169.555" gradientUnits="userSpaceOnUse">
<stop stop-color="#80FF48"/>
<stop offset="1" stop-color="#68AE49"/>
</linearGradient>
<linearGradient id="paint1_linear_3_1136" x1="42.3755" y1="406.783" x2="218.916" y2="-39.763" gradientUnits="userSpaceOnUse">
<stop stop-color="#2277D8"/>
<stop offset="1" stop-color="#1E9CEA"/>
</linearGradient>
<linearGradient id="paint2_linear_3_1136" x1="42.6241" y1="167.145" x2="-27.9959" y2="139.191" gradientUnits="userSpaceOnUse">
<stop stop-color="#80FF48"/>
<stop offset="1" stop-color="#68AE49"/>
</linearGradient>
<linearGradient id="paint3_linear_3_1136" x1="-81.0554" y1="376.419" x2="95.4856" y2="-70.1273" gradientUnits="userSpaceOnUse">
<stop stop-color="#2277D8"/>
<stop offset="1" stop-color="#1E9CEA"/>
</linearGradient>
<linearGradient id="paint4_linear_3_1136" x1="204.973" y1="257.717" x2="-38.2781" y2="163.383" gradientUnits="userSpaceOnUse">
<stop stop-color="#2E97D6" stop-opacity="0"/>
<stop offset="0.5" stop-color="#2E97D6"/>
<stop offset="1" stop-color="#2E97D6" stop-opacity="0"/>
</linearGradient>
<linearGradient id="paint5_linear_3_1136" x1="-3.94544e-06" y1="-16.66" x2="323.196" y2="106.793" gradientUnits="userSpaceOnUse">
<stop offset="0.183691" stop-color="#2E97D6" stop-opacity="0"/>
<stop offset="0.5" stop-color="#2E97D6"/>
<stop offset="0.843561" stop-color="#2E97D6" stop-opacity="0"/>
</linearGradient>
<clipPath id="clip0_3_1136">
<rect width="235.9" height="283.5" rx="11.2" fill="white"/>
</clipPath>
<clipPath id="clip1_3_1136">
<rect width="357" height="341.6" fill="white" transform="translate(-65.1001 -11.9)"/>
</clipPath>
</defs>
</svg>
