<svg width="61" height="54" viewBox="0 0 61 54" fill="none" xmlns="http://www.w3.org/2000/svg">
<g clip-path="url(#clip0_345_1355)">
<path fill-rule="evenodd" clip-rule="evenodd" d="M24.7042 10.8254C26.4857 10.2079 28.3289 9.6194 30.126 9.07888L32.2527 8.4516L34.2964 7.8737L36.2158 7.348L37.9748 6.88473C39.883 6.3787 41.908 6.54739 43.6934 7.36107C45.4787 8.17475 46.9098 9.58124 47.7346 11.3328L48.1258 12.1695L48.9413 13.9686C49.7702 15.8386 50.6233 17.8947 51.3354 19.8966C52.0475 21.8986 52.6839 24.0298 53.2211 26.0008L53.7241 27.9083L53.9486 28.8027C54.4142 30.6791 54.1878 32.6604 53.3093 34.3974C52.4308 36.1344 50.9565 37.5157 49.1462 38.2979L47.4833 39.0184L45.653 39.7946L43.6899 40.6054L41.6327 41.4282C39.8675 42.1252 38.0878 42.7863 36.2949 43.4109C34.5 44.0298 32.6923 44.6121 30.8731 45.1574L28.7464 45.7846L26.7028 46.3625L24.7827 46.8862L23.0243 47.3515C21.1162 47.8575 19.0911 47.6889 17.3058 46.8752C15.5204 46.0615 14.0893 44.655 13.2646 42.9034L12.8734 42.0668L12.0579 40.2676C11.1872 38.3209 10.3886 36.3436 9.66378 34.3396C8.95168 32.3377 8.31532 30.2065 7.77805 28.2354L7.27509 26.328L7.05056 25.4335C6.58502 23.5578 6.811 21.5773 7.68872 19.8407C8.56643 18.1041 10.0396 16.7227 11.8488 15.9398L13.5131 15.2166L15.3441 14.4424L17.3072 13.6316L19.3643 12.8088C21.1303 12.1115 22.9106 11.4502 24.7042 10.8254ZM24.5757 23.6237L28.0891 33.5012C28.4238 34.4421 29.6742 34.6675 30.341 33.9103L37.3354 25.9385C37.4877 25.7654 37.591 25.5562 37.6348 25.3322C37.6787 25.1081 37.6615 24.8771 37.5851 24.6623C37.5087 24.4476 37.3758 24.2567 37.1997 24.1089C37.0236 23.9611 36.8105 23.8616 36.582 23.8204L26.0749 21.9168C25.8467 21.8754 25.6109 21.8937 25.3914 21.9698C25.1719 22.0459 24.9764 22.1772 24.8245 22.3504C24.6726 22.5236 24.5697 22.7327 24.5262 22.9565C24.4826 23.1804 24.5 23.4112 24.5764 23.6257L24.5757 23.6237Z" fill="black"/>
<path d="M25.787 23.1943L25.8129 23.185L25.8473 23.1728L27.4024 22.6185L25.787 23.1943ZM23.7219 7.99084L23.7174 7.9924C21.8852 8.63066 20.0666 9.30618 18.2626 10.0185L18.2503 10.0234L16.1932 10.8462L16.1776 10.8524L16.1621 10.8588L14.199 11.6696L14.1874 11.6744L14.1759 11.6792L12.3449 12.4534L12.3311 12.4592L12.3175 12.4652L10.6575 13.1865C10.6568 13.1868 10.656 13.1872 10.6553 13.1875C8.21246 14.2451 6.20958 16.1166 5.01129 18.4875C3.81176 20.8608 3.49893 23.5776 4.13892 26.1562L4.14087 26.164L4.36541 27.0584L4.36974 27.0757L4.37427 27.0929L4.87722 29.0003L4.8804 29.0124L4.88368 29.0244C5.43311 31.04 6.0916 33.2486 6.8373 35.345L6.83997 35.3526L6.84268 35.3601C7.59256 37.4332 8.41867 39.4787 9.31939 41.4925L9.32244 41.4993L9.32553 41.5062L10.1411 43.3053L10.1484 43.3214L10.1559 43.3375L10.5471 44.1742L10.5505 44.1815C11.6824 46.5852 13.6394 48.5011 16.0617 49.605C18.482 50.7081 21.2182 50.9338 23.7919 50.2517C23.7924 50.2516 23.7929 50.2514 23.7934 50.2513L25.5502 49.7864L25.5612 49.7835L25.5721 49.7805L27.4922 49.2568L27.5057 49.2532L27.5192 49.2493L29.5628 48.6714L29.5791 48.6669L29.5952 48.6621L31.7219 48.0348L31.7345 48.031C33.5929 47.474 35.4394 46.8792 37.2729 46.247L37.282 46.2439C39.1134 45.6058 40.9314 44.9306 42.7347 44.2185L42.7469 44.2136L44.8041 43.3908L44.8196 43.3846L44.8352 43.3782L46.7983 42.5674L46.8113 42.562L46.8243 42.5565L48.6547 41.7803L48.6654 41.7757L48.676 41.7711L50.3362 41.0518C50.3371 41.0514 50.338 41.051 50.3389 41.0506C52.7829 39.9939 54.7872 38.1226 55.9865 35.7514C57.1871 33.3775 57.5005 30.6597 56.8604 28.0802L56.8584 28.0723L56.6339 27.1778L56.6296 27.1606L56.625 27.1434L56.1221 25.236L56.1189 25.2239L56.1156 25.2119C55.5662 23.1962 54.9077 20.9876 54.162 18.8912C53.4163 16.7949 52.5316 14.6649 51.6839 12.7528L51.6789 12.7414L51.6738 12.7301L50.8583 10.931L50.851 10.9148L50.8435 10.8988L50.4522 10.0621L50.4488 10.0548C49.317 7.65114 47.3599 5.73525 44.9376 4.63128C42.5177 3.52836 39.782 3.30253 37.2086 3.98432C37.2077 3.98455 37.2068 3.98479 37.2059 3.98503L35.4518 4.44698L35.4376 4.45073L35.4234 4.45462L33.504 4.98032L33.492 4.98359L33.4801 4.98696L31.4365 5.56486L31.4203 5.56945L31.4041 5.57422L29.2774 6.2015L29.2697 6.20377L29.2621 6.20607C27.433 6.75621 25.5495 7.35741 23.7219 7.99084ZM33.0839 26.2355L29.9567 29.7997L28.3862 25.3843L33.0839 26.2355Z" stroke="#FF2828" stroke-width="6"/>
</g>
<defs>
<clipPath id="clip0_345_1355">
<rect width="61" height="54" fill="white"/>
</clipPath>
</defs>
</svg>
