<svg width="170" height="67" viewBox="0 0 170 67" fill="none" xmlns="http://www.w3.org/2000/svg">
<g filter="url(#filter0_d_4_2)">
<path d="M22.0331 48.1426C22.9629 49.0287 24.1981 49.523 25.4825 49.523H83.7066H144.002C145.244 49.523 146.441 49.0609 147.361 48.2265L154.154 42.065C155.199 41.1173 155.795 39.7722 155.795 38.3615V28.9702C155.795 27.6298 155.257 26.3455 154.301 25.4056L147.391 18.6084C146.456 17.6885 145.196 17.173 143.885 17.173H25.601C24.2464 17.173 22.9498 17.7227 22.0078 18.6962L15.5007 25.421C14.5984 26.3535 14.094 27.6003 14.094 28.8979V38.4348C14.094 39.8027 14.6544 41.1108 15.6446 42.0544L22.0331 48.1426Z" fill="#DBA93F" fill-opacity="0.3"/>
<path d="M22.0331 48.1426C22.9629 49.0287 24.1981 49.523 25.4825 49.523H83.7066H144.002C145.244 49.523 146.441 49.0609 147.361 48.2265L154.154 42.065C155.199 41.1173 155.795 39.7722 155.795 38.3615V28.9702C155.795 27.6298 155.257 26.3455 154.301 25.4056L147.391 18.6084C146.456 17.6885 145.196 17.173 143.885 17.173H25.601C24.2464 17.173 22.9498 17.7227 22.0078 18.6962L15.5007 25.421C14.5984 26.3535 14.094 27.6003 14.094 28.8979V38.4348C14.094 39.8027 14.6544 41.1108 15.6446 42.0544L22.0331 48.1426Z" fill="url(#paint0_linear_4_2)" fill-opacity="0.46"/>
<path d="M22.0331 48.1426C22.9629 49.0287 24.1981 49.523 25.4825 49.523H83.7066H144.002C145.244 49.523 146.441 49.0609 147.361 48.2265L154.154 42.065C155.199 41.1173 155.795 39.7722 155.795 38.3615V28.9702C155.795 27.6298 155.257 26.3455 154.301 25.4056L147.391 18.6084C146.456 17.6885 145.196 17.173 143.885 17.173H25.601C24.2464 17.173 22.9498 17.7227 22.0078 18.6962L15.5007 25.421C14.5984 26.3535 14.094 27.6003 14.094 28.8979V38.4348C14.094 39.8027 14.6544 41.1108 15.6446 42.0544L22.0331 48.1426Z" fill="url(#paint1_linear_4_2)" fill-opacity="0.04"/>
<path d="M25.4827 49.1177H144.002C145.143 49.1176 146.244 48.693 147.089 47.9263L153.882 41.7652C154.842 40.8943 155.39 39.6582 155.39 38.3619V28.9703C155.39 27.7385 154.895 26.5577 154.017 25.6939L147.107 18.897C146.247 18.0518 145.09 17.5778 143.885 17.5777H25.6008C24.356 17.5778 23.1647 18.0835 22.2991 18.9781L15.7922 25.7027C14.963 26.5597 14.4993 27.7055 14.4993 28.898V38.4351C14.4993 39.692 15.0142 40.8941 15.9241 41.7613L22.3127 47.8492C23.1673 48.6635 24.3023 49.1177 25.4827 49.1177Z" stroke="url(#paint2_linear_4_2)" stroke-opacity="0.07" stroke-width="0.81"/>
</g>
<mask id="mask0_4_2" style="mask-type:alpha" maskUnits="userSpaceOnUse" x="14" y="17" width="142" height="33">
<path d="M19.258 45.4977C21.9694 48.0816 25.5711 49.523 29.3165 49.523H83.7068H140.305C143.926 49.523 147.418 48.1754 150.1 45.7425L153.403 42.7466C154.926 41.3648 155.795 39.4037 155.795 37.3469V29.8927C155.795 27.9603 155.028 26.107 153.662 24.7401L150.203 21.2778C147.468 18.5409 143.758 17.0031 139.889 17.0031H29.7369C25.7429 17.0031 21.9237 18.6415 19.1714 21.5358L16.1015 24.7641C14.8129 26.1192 14.0942 27.9177 14.0942 29.7877V37.4538C14.0942 39.4481 14.9113 41.3553 16.355 42.7312L19.258 45.4977Z" fill="#DBA93F" fill-opacity="0.81"/>
<path d="M19.258 45.4977C21.9694 48.0816 25.5711 49.523 29.3165 49.523H83.7068H140.305C143.926 49.523 147.418 48.1754 150.1 45.7425L153.403 42.7466C154.926 41.3648 155.795 39.4037 155.795 37.3469V29.8927C155.795 27.9603 155.028 26.107 153.662 24.7401L150.203 21.2778C147.468 18.5409 143.758 17.0031 139.889 17.0031H29.7369C25.7429 17.0031 21.9237 18.6415 19.1714 21.5358L16.1015 24.7641C14.8129 26.1192 14.0942 27.9177 14.0942 29.7877V37.4538C14.0942 39.4481 14.9113 41.3553 16.355 42.7312L19.258 45.4977Z" fill="url(#paint3_linear_4_2)" fill-opacity="0.3"/>
<path d="M19.258 45.4977C21.9694 48.0816 25.5711 49.523 29.3165 49.523H83.7068H140.305C143.926 49.523 147.418 48.1754 150.1 45.7425L153.403 42.7466C154.926 41.3648 155.795 39.4037 155.795 37.3469V29.8927C155.795 27.9603 155.028 26.107 153.662 24.7401L150.203 21.2778C147.468 18.5409 143.758 17.0031 139.889 17.0031H29.7369C25.7429 17.0031 21.9237 18.6415 19.1714 21.5358L16.1015 24.7641C14.8129 26.1192 14.0942 27.9177 14.0942 29.7877V37.4538C14.0942 39.4481 14.9113 41.3553 16.355 42.7312L19.258 45.4977Z" fill="url(#paint4_linear_4_2)" fill-opacity="0.12"/>
<path d="M29.3169 49.1177H140.304C143.825 49.1177 147.22 47.8081 149.828 45.4429L153.13 42.4468C154.569 41.1419 155.39 39.2896 155.39 37.3472V29.8931C155.39 28.0681 154.665 26.317 153.375 25.0259L149.917 21.564C147.258 18.9031 143.651 17.4078 139.889 17.4078H29.7368C25.8539 17.4078 22.1412 19.0012 19.4653 21.815L16.395 25.0435C15.1781 26.3233 14.4995 28.0216 14.4995 29.7877V37.4537C14.4995 39.3372 15.2708 41.1386 16.6343 42.438L19.5376 45.2047C22.1736 47.7167 25.6756 49.1177 29.3169 49.1177Z" stroke="url(#paint5_linear_4_2)" stroke-opacity="0.04" stroke-width="0.81"/>
<path d="M29.3169 49.1177H140.304C143.825 49.1177 147.22 47.8081 149.828 45.4429L153.13 42.4468C154.569 41.1419 155.39 39.2896 155.39 37.3472V29.8931C155.39 28.0681 154.665 26.317 153.375 25.0259L149.917 21.564C147.258 18.9031 143.651 17.4078 139.889 17.4078H29.7368C25.8539 17.4078 22.1412 19.0012 19.4653 21.815L16.395 25.0435C15.1781 26.3233 14.4995 28.0216 14.4995 29.7877V37.4537C14.4995 39.3372 15.2708 41.1386 16.6343 42.438L19.5376 45.2047C22.1736 47.7167 25.6756 49.1177 29.3169 49.1177Z" stroke="#FFD563" stroke-opacity="0.05" stroke-width="0.81"/>
</mask>
<g mask="url(#mask0_4_2)">
<g opacity="0.33" filter="url(#filter1_f_4_2)">
<rect x="28.5125" y="35.6365" width="117" height="30" fill="#FFD275"/>
</g>
</g>
<g opacity="0.51" filter="url(#filter2_f_4_2)">
<rect x="55.3529" y="22.842" width="67.23" height="12.586" transform="rotate(7.21375 55.3529 22.842)" fill="black"/>
</g>
<defs>
<filter id="filter0_d_4_2" x="-4.76837e-06" y="6.31904" width="169.889" height="60.538" filterUnits="userSpaceOnUse" color-interpolation-filters="sRGB">
<feFlood flood-opacity="0" result="BackgroundImageFix"/>
<feColorMatrix in="SourceAlpha" type="matrix" values="0 0 0 0 0 0 0 0 0 0 0 0 0 0 0 0 0 0 127 0" result="hardAlpha"/>
<feOffset dy="3.24"/>
<feGaussianBlur stdDeviation="7.047"/>
<feComposite in2="hardAlpha" operator="out"/>
<feColorMatrix type="matrix" values="0 0 0 0 0 0 0 0 0 0 0 0 0 0 0 0 0 0 0.06 0"/>
<feBlend mode="normal" in2="BackgroundImageFix" result="effect1_dropShadow_4_2"/>
<feBlend mode="normal" in="SourceGraphic" in2="effect1_dropShadow_4_2" result="shape"/>
</filter>
<filter id="filter1_f_4_2" x="-0.68755" y="6.43647" width="175.4" height="88.4" filterUnits="userSpaceOnUse" color-interpolation-filters="sRGB">
<feFlood flood-opacity="0" result="BackgroundImageFix"/>
<feBlend mode="normal" in="SourceGraphic" in2="BackgroundImageFix" result="shape"/>
<feGaussianBlur stdDeviation="14.6" result="effect1_foregroundBlur_4_2"/>
</filter>
<filter id="filter2_f_4_2" x="30.9305" y="-1.90735e-05" width="113.962" height="66.6125" filterUnits="userSpaceOnUse" color-interpolation-filters="sRGB">
<feFlood flood-opacity="0" result="BackgroundImageFix"/>
<feBlend mode="normal" in="SourceGraphic" in2="BackgroundImageFix" result="shape"/>
<feGaussianBlur stdDeviation="11.421" result="effect1_foregroundBlur_4_2"/>
</filter>
<linearGradient id="paint0_linear_4_2" x1="83.9445" y1="47.523" x2="83.9445" y2="19.173" gradientUnits="userSpaceOnUse">
<stop stop-color="#D28900" stop-opacity="0"/>
<stop offset="1" stop-color="#D28900"/>
</linearGradient>
<linearGradient id="paint1_linear_4_2" x1="83.9445" y1="47.523" x2="83.9445" y2="19.173" gradientUnits="userSpaceOnUse">
<stop stop-color="white" stop-opacity="0"/>
<stop offset="0.5" stop-color="white"/>
<stop offset="1" stop-color="white" stop-opacity="0"/>
</linearGradient>
<linearGradient id="paint2_linear_4_2" x1="83.9445" y1="47.523" x2="83.9445" y2="19.173" gradientUnits="userSpaceOnUse">
<stop stop-color="white"/>
<stop offset="1" stop-opacity="0"/>
</linearGradient>
<linearGradient id="paint3_linear_4_2" x1="83.9447" y1="47.523" x2="83.9447" y2="19.173" gradientUnits="userSpaceOnUse">
<stop stop-color="#D28900" stop-opacity="0"/>
<stop offset="1" stop-color="#D28900"/>
</linearGradient>
<linearGradient id="paint4_linear_4_2" x1="83.9447" y1="47.523" x2="83.9447" y2="19.173" gradientUnits="userSpaceOnUse">
<stop stop-color="white" stop-opacity="0"/>
<stop offset="0.5" stop-color="white"/>
<stop offset="1" stop-color="white" stop-opacity="0"/>
</linearGradient>
<linearGradient id="paint5_linear_4_2" x1="83.9447" y1="47.523" x2="83.9447" y2="19.173" gradientUnits="userSpaceOnUse">
<stop stop-color="white"/>
<stop offset="1" stop-opacity="0"/>
</linearGradient>
</defs>
</svg>
