<svg width="142" height="33" viewBox="0 0 142 33" fill="none" xmlns="http://www.w3.org/2000/svg">
<path d="M7.93909 30.9696C8.86892 31.8557 10.1041 32.35 11.3885 32.35H69.6126H129.908C131.15 32.35 132.347 31.8879 133.267 31.0535L140.06 24.892C141.105 23.9442 141.701 22.5992 141.701 21.1885V11.7972C141.701 10.4568 141.163 9.1725 140.207 8.23255L133.297 1.4354C132.362 0.515523 131.102 7.62939e-06 129.791 7.62939e-06H11.507C10.1524 7.62939e-06 8.85576 0.549646 7.91379 1.52315L1.40675 8.24803C0.504444 9.18054 0 10.4273 0 11.7249V21.2618C0 22.6296 0.560372 23.9378 1.55057 24.8814L7.93909 30.9696Z" fill="#DBA93F" fill-opacity="0.3"/>
<path d="M7.93909 30.9696C8.86892 31.8557 10.1041 32.35 11.3885 32.35H69.6126H129.908C131.15 32.35 132.347 31.8879 133.267 31.0535L140.06 24.892C141.105 23.9442 141.701 22.5992 141.701 21.1885V11.7972C141.701 10.4568 141.163 9.1725 140.207 8.23255L133.297 1.4354C132.362 0.515523 131.102 7.62939e-06 129.791 7.62939e-06H11.507C10.1524 7.62939e-06 8.85576 0.549646 7.91379 1.52315L1.40675 8.24803C0.504444 9.18054 0 10.4273 0 11.7249V21.2618C0 22.6296 0.560372 23.9378 1.55057 24.8814L7.93909 30.9696Z" fill="url(#paint0_linear_76_282)" fill-opacity="0.46"/>
<path d="M7.93909 30.9696C8.86892 31.8557 10.1041 32.35 11.3885 32.35H69.6126H129.908C131.15 32.35 132.347 31.8879 133.267 31.0535L140.06 24.892C141.105 23.9442 141.701 22.5992 141.701 21.1885V11.7972C141.701 10.4568 141.163 9.1725 140.207 8.23255L133.297 1.4354C132.362 0.515523 131.102 7.62939e-06 129.791 7.62939e-06H11.507C10.1524 7.62939e-06 8.85576 0.549646 7.91379 1.52315L1.40675 8.24803C0.504444 9.18054 0 10.4273 0 11.7249V21.2618C0 22.6296 0.560372 23.9378 1.55057 24.8814L7.93909 30.9696Z" fill="url(#paint1_linear_76_282)" fill-opacity="0.04"/>
<path d="M11.3887 31.9447H129.908C131.049 31.9446 132.15 31.52 132.995 30.7533L139.788 24.5922C140.748 23.7213 141.296 22.4852 141.296 21.1889V11.7973C141.296 10.5655 140.801 9.38471 139.923 8.5209L133.013 1.72403C132.153 0.878834 130.996 0.404783 129.791 0.404694H11.5068C10.262 0.404749 9.0707 0.910485 8.20508 1.80508L1.69824 8.52969C0.869025 9.38667 0.405273 10.5325 0.405273 11.725V21.2621C0.405355 22.519 0.920158 23.7211 1.83008 24.5883L8.21875 30.6762C9.07326 31.4905 10.2083 31.9447 11.3887 31.9447Z" stroke="url(#paint2_linear_76_282)" stroke-opacity="0.07" stroke-width="0.81"/>
<defs>
<linearGradient id="paint0_linear_76_282" x1="69.8505" y1="30.35" x2="69.8505" y2="2" gradientUnits="userSpaceOnUse">
<stop stop-color="#D28900" stop-opacity="0"/>
<stop offset="1" stop-color="#D28900"/>
</linearGradient>
<linearGradient id="paint1_linear_76_282" x1="69.8505" y1="30.35" x2="69.8505" y2="2" gradientUnits="userSpaceOnUse">
<stop stop-color="white" stop-opacity="0"/>
<stop offset="0.5" stop-color="white"/>
<stop offset="1" stop-color="white" stop-opacity="0"/>
</linearGradient>
<linearGradient id="paint2_linear_76_282" x1="69.8505" y1="30.35" x2="69.8505" y2="2" gradientUnits="userSpaceOnUse">
<stop stop-color="white"/>
<stop offset="1" stop-opacity="0"/>
</linearGradient>
</defs>
</svg>
