<svg width="222" height="321" viewBox="0 0 222 321" fill="none" xmlns="http://www.w3.org/2000/svg">
<g clip-path="url(#clip0_71_131)">
<g filter="url(#filter0_d_71_131)">
<path d="M106.626 3.67499C109.351 1.80879 112.942 1.80879 115.667 3.675L215.334 71.9364C219.689 74.9193 222.293 79.8584 222.293 85.1371V152.826V231.452C222.293 236.766 219.655 241.733 215.252 244.708L115.656 312.026C112.935 313.865 109.366 313.854 106.656 311.998L6.9589 243.716C2.60368 240.733 0 235.794 0 230.515V152.826V85.1371C0 79.8583 2.60368 74.9193 6.9589 71.9364L106.626 3.67499Z" fill="#D9D9D9"/>
<path d="M106.626 3.67499C109.351 1.80879 112.942 1.80879 115.667 3.675L215.334 71.9364C219.689 74.9193 222.293 79.8584 222.293 85.1371V152.826V231.452C222.293 236.766 219.655 241.733 215.252 244.708L115.656 312.026C112.935 313.865 109.366 313.854 106.656 311.998L6.9589 243.716C2.60368 240.733 0 235.794 0 230.515V152.826V85.1371C0 79.8583 2.60368 74.9193 6.9589 71.9364L106.626 3.67499Z" fill="#1F1F1F"/>
<path d="M107.19 4.49979C109.575 2.86693 112.717 2.86706 115.102 4.49979L214.769 72.7615C218.852 75.5579 221.293 80.1886 221.293 85.1375V231.452C221.293 236.433 218.82 241.09 214.692 243.88L115.096 311.197C112.715 312.806 109.592 312.797 107.221 311.173L7.52441 242.891C3.44143 240.095 1.00004 235.464 1 230.515V85.1375L1.00684 84.6746C1.15373 79.9009 3.56887 75.4706 7.52441 72.7615L107.19 4.49979Z" stroke="url(#paint0_linear_71_131)" stroke-opacity="0.23" stroke-width="2"/>
</g>
<mask id="mask0_71_131" style="mask-type:alpha" maskUnits="userSpaceOnUse" x="0" y="2" width="223" height="312">
<path d="M106.626 4.09611C109.351 2.22991 112.942 2.22991 115.667 4.09611L215.334 72.3576C219.689 75.3404 222.293 80.2795 222.293 85.5582V153.247V230.936C222.293 236.215 219.689 241.154 215.333 244.137L115.667 312.394C112.942 314.26 109.351 314.26 106.626 312.394L6.95919 244.136C2.6038 241.153 0 236.214 0 230.935V153.247V85.5582C0 80.2795 2.60368 75.3404 6.9589 72.3575L106.626 4.09611Z" fill="#D9D9D9"/>
<path d="M106.626 4.09611C109.351 2.22991 112.942 2.22991 115.667 4.09611L215.334 72.3576C219.689 75.3404 222.293 80.2795 222.293 85.5582V153.247V230.936C222.293 236.215 219.689 241.154 215.333 244.137L115.667 312.394C112.942 314.26 109.351 314.26 106.626 312.394L6.95919 244.136C2.6038 241.153 0 236.214 0 230.935V153.247V85.5582C0 80.2795 2.60368 75.3404 6.9589 72.3575L106.626 4.09611Z" fill="#1F1F1F"/>
<path d="M106.953 4.57324C109.481 2.84238 112.812 2.84229 115.34 4.57324L215.007 72.835C219.204 75.7099 221.714 80.4708 221.714 85.5586V230.937C221.714 236.024 219.204 240.784 215.006 243.659L115.34 311.917C112.812 313.648 109.481 313.648 106.953 311.917L7.28613 243.658C3.08856 240.783 0.579221 236.023 0.579102 230.936V85.5586C0.579102 80.4708 3.08849 75.7099 7.28613 72.835L106.953 4.57324Z" stroke="url(#paint1_linear_71_131)" stroke-opacity="0.04" stroke-width="1.15777"/>
</mask>
<g mask="url(#mask0_71_131)">
<g filter="url(#filter1_i_71_131)">
<path d="M1 224.872C71.774 209.092 145.116 208.732 216.041 223.818L221 224.872V381.924H1V224.872Z" fill="black" fill-opacity="0.04"/>
</g>
<path d="M1.52539 225.294C72.0986 209.62 145.217 209.291 215.932 224.331L220.475 225.297V381.399H1.52539V225.294Z" stroke="url(#paint2_linear_71_131)" stroke-width="1.05028"/>
<mask id="mask1_71_131" style="mask-type:alpha" maskUnits="userSpaceOnUse" x="0" y="-3" width="222" height="228">
<path d="M0 -2.07605H222V224.924C148.778 209.752 73.2223 209.752 0 224.924V-2.07605Z" fill="#D9D9D9"/>
</mask>
<g mask="url(#mask1_71_131)">
<path opacity="0.02" d="M77.7412 421.669L7.11035 393.745L11.5771 382.46H93.2617L77.7412 421.669ZM131.038 -55.1678L21.6172 221.264C13.9766 222.578 6.35764 224.061 -1.2334 225.714V278.993L-45.6895 391.305L-116.321 363.381L60.4062 -83.0916L131.038 -55.1678ZM11.5771 382.46H-1.2334V278.993L21.6172 221.264C40.3062 218.049 59.1264 215.848 77.9961 214.662L11.5771 382.46ZM159.22 215.824C179.071 217.643 198.847 220.586 218.45 224.659L223.526 225.714V382.46H93.2617L159.22 215.824ZM254.469 -24.8036L159.22 215.824C132.206 213.35 105.05 212.963 77.9961 214.662L183.837 -52.7274L254.469 -24.8036Z" fill="white"/>
</g>
<g filter="url(#filter2_f_71_131)">
<rect x="85" y="297.924" width="52" height="33" fill="#A08422"/>
</g>
</g>
<g opacity="0.08" filter="url(#filter3_f_71_131)">
<rect x="31.2109" y="115.398" width="98.4" height="140.8" rx="16" transform="rotate(-24.9282 31.2109 115.398)" fill="#D9D9D9"/>
</g>
<path d="M94.8687 11.0581C96.1342 10.1573 97.649 9.67316 99.2024 9.67316H111.253H123.303C124.857 9.67316 126.372 10.1573 127.637 11.0582L138.736 18.9591C140.828 20.4488 140.828 23.5569 138.736 25.0466L127.637 32.9475C126.372 33.8484 124.857 34.3325 123.303 34.3325H111.253H99.2024C97.649 34.3325 96.1342 33.8484 94.8687 32.9475L83.7702 25.0466C81.6777 23.5569 81.6777 20.4487 83.7702 18.9591L94.8687 11.0581Z" fill="#DBA93F"/>
<path d="M94.8687 11.0581C96.1342 10.1573 97.649 9.67316 99.2024 9.67316H111.253H123.303C124.857 9.67316 126.372 10.1573 127.637 11.0582L138.736 18.9591C140.828 20.4488 140.828 23.5569 138.736 25.0466L127.637 32.9475C126.372 33.8484 124.857 34.3325 123.303 34.3325H111.253H99.2024C97.649 34.3325 96.1342 33.8484 94.8687 32.9475L83.7702 25.0466C81.6777 23.5569 81.6777 20.4487 83.7702 18.9591L94.8687 11.0581Z" fill="url(#paint3_linear_71_131)" fill-opacity="0.82"/>
<path d="M94.8687 11.0581C96.1342 10.1573 97.649 9.67316 99.2024 9.67316H111.253H123.303C124.857 9.67316 126.372 10.1573 127.637 11.0582L138.736 18.9591C140.828 20.4488 140.828 23.5569 138.736 25.0466L127.637 32.9475C126.372 33.8484 124.857 34.3325 123.303 34.3325H111.253H99.2024C97.649 34.3325 96.1342 33.8484 94.8687 32.9475L83.7702 25.0466C81.6777 23.5569 81.6777 20.4487 83.7702 18.9591L94.8687 11.0581Z" fill="url(#paint4_linear_71_131)" fill-opacity="0.2"/>
<path d="M99.2026 10.0657H123.303C124.775 10.0657 126.211 10.5247 127.41 11.3782L138.508 19.2786C140.381 20.6118 140.381 23.3936 138.508 24.7269L127.41 32.6282C126.211 33.4818 124.775 33.9398 123.303 33.9398H99.2026C97.7309 33.9398 96.2952 33.4818 95.0962 32.6282L83.9976 24.7269C82.125 23.3936 82.1249 20.6118 83.9976 19.2786L95.0962 11.3782C96.2952 10.5247 97.7308 10.0657 99.2026 10.0657Z" stroke="url(#paint5_linear_71_131)" stroke-opacity="0.04" stroke-width="0.784824"/>
<path d="M99.2026 10.0657H123.303C124.775 10.0657 126.211 10.5247 127.41 11.3782L138.508 19.2786C140.381 20.6118 140.381 23.3936 138.508 24.7269L127.41 32.6282C126.211 33.4818 124.775 33.9398 123.303 33.9398H99.2026C97.7309 33.9398 96.2952 33.4818 95.0962 32.6282L83.9976 24.7269C82.125 23.3936 82.1249 20.6118 83.9976 19.2786L95.0962 11.3782C96.2952 10.5247 97.7308 10.0657 99.2026 10.0657Z" stroke="#FFD563" stroke-opacity="0.79" stroke-width="0.784824"/>
<path d="M100.456 26.9773V25.4695H102.663V20.0171H100.442V18.8863C100.738 18.8594 101.079 18.792 101.465 18.6843C101.86 18.5677 102.255 18.4286 102.65 18.267C103.045 18.0965 103.399 17.917 103.713 17.7285H104.548V25.4695H106.608V26.9773H100.456ZM111.747 27.1389C111.208 27.1389 110.697 27.085 110.212 26.9773C109.727 26.8696 109.296 26.6991 108.92 26.4657C108.552 26.2234 108.26 25.9228 108.044 25.5637C107.838 25.1958 107.735 24.7515 107.735 24.2309C107.735 24.1861 107.735 24.1412 107.735 24.0963C107.735 24.0425 107.739 24.0021 107.748 23.9752H109.741C109.732 24.0021 109.727 24.038 109.727 24.0829C109.727 24.1277 109.727 24.1681 109.727 24.204C109.727 24.4912 109.804 24.7336 109.956 24.931C110.118 25.1285 110.351 25.2765 110.656 25.3753C110.961 25.474 111.316 25.5234 111.72 25.5234C111.98 25.5234 112.209 25.5099 112.406 25.483C112.613 25.4471 112.792 25.4022 112.945 25.3483C113.106 25.2855 113.237 25.2137 113.335 25.1329C113.443 25.0522 113.519 24.9579 113.564 24.8502C113.618 24.7425 113.645 24.6214 113.645 24.4867C113.645 24.2444 113.564 24.047 113.403 23.8944C113.25 23.7418 113.035 23.6117 112.756 23.504C112.487 23.3963 112.182 23.2975 111.841 23.2078C111.5 23.118 111.15 23.0283 110.791 22.9385C110.432 22.8398 110.082 22.7231 109.741 22.5885C109.4 22.4449 109.095 22.2744 108.825 22.0769C108.556 21.8795 108.341 21.6282 108.179 21.323C108.018 21.0179 107.937 20.6499 107.937 20.2191C107.937 19.7614 108.031 19.3665 108.219 19.0344C108.417 18.7023 108.691 18.4286 109.041 18.2132C109.391 17.9978 109.795 17.8407 110.252 17.742C110.71 17.6343 111.208 17.5804 111.747 17.5804C112.249 17.5804 112.725 17.6343 113.174 17.742C113.622 17.8407 114.017 18.0022 114.358 18.2266C114.699 18.451 114.964 18.7337 115.153 19.0748C115.35 19.4158 115.449 19.8197 115.449 20.2864V20.448H113.497V20.3403C113.497 20.0979 113.425 19.8915 113.281 19.721C113.138 19.5504 112.936 19.4158 112.676 19.3171C112.415 19.2184 112.11 19.169 111.76 19.169C111.383 19.169 111.06 19.2049 110.791 19.2767C110.531 19.3485 110.329 19.4562 110.185 19.5998C110.05 19.7344 109.983 19.896 109.983 20.0845C109.983 20.2999 110.059 20.4794 110.212 20.623C110.373 20.7576 110.589 20.8788 110.858 20.9865C111.136 21.0852 111.446 21.1749 111.787 21.2557C112.128 21.3365 112.478 21.4262 112.837 21.525C113.196 21.6237 113.546 21.7404 113.887 21.875C114.228 22.0096 114.533 22.1801 114.803 22.3866C115.072 22.584 115.287 22.8308 115.449 23.127C115.61 23.4232 115.691 23.7777 115.691 24.1906C115.691 24.8996 115.521 25.4695 115.18 25.9003C114.839 26.3311 114.372 26.6452 113.78 26.8427C113.187 27.0402 112.51 27.1389 111.747 27.1389ZM119.565 26.9773V19.4248H116.603V17.742H124.559V19.4248H121.584V26.9773H119.565Z" fill="black"/>
</g>
<defs>
<filter id="filter0_d_71_131" x="-36.9" y="-30.6247" width="296.092" height="384.922" filterUnits="userSpaceOnUse" color-interpolation-filters="sRGB">
<feFlood flood-opacity="0" result="BackgroundImageFix"/>
<feColorMatrix in="SourceAlpha" type="matrix" values="0 0 0 0 0 0 0 0 0 0 0 0 0 0 0 0 0 0 127 0" result="hardAlpha"/>
<feOffset dy="4"/>
<feGaussianBlur stdDeviation="18.45"/>
<feComposite in2="hardAlpha" operator="out"/>
<feColorMatrix type="matrix" values="0 0 0 0 0 0 0 0 0 0 0 0 0 0 0 0 0 0 0.24 0"/>
<feBlend mode="normal" in2="BackgroundImageFix" result="effect1_dropShadow_71_131"/>
<feBlend mode="normal" in="SourceGraphic" in2="effect1_dropShadow_71_131" result="shape"/>
</filter>
<filter id="filter1_i_71_131" x="1" y="212.764" width="220" height="173.16" filterUnits="userSpaceOnUse" color-interpolation-filters="sRGB">
<feFlood flood-opacity="0" result="BackgroundImageFix"/>
<feBlend mode="normal" in="SourceGraphic" in2="BackgroundImageFix" result="shape"/>
<feColorMatrix in="SourceAlpha" type="matrix" values="0 0 0 0 0 0 0 0 0 0 0 0 0 0 0 0 0 0 127 0" result="hardAlpha"/>
<feOffset dy="4"/>
<feGaussianBlur stdDeviation="15.15"/>
<feComposite in2="hardAlpha" operator="arithmetic" k2="-1" k3="1"/>
<feColorMatrix type="matrix" values="0 0 0 0 0 0 0 0 0 0 0 0 0 0 0 0 0 0 0.38 0"/>
<feBlend mode="normal" in2="shape" result="effect1_innerShadow_71_131"/>
</filter>
<filter id="filter2_f_71_131" x="19.8" y="232.724" width="182.4" height="163.4" filterUnits="userSpaceOnUse" color-interpolation-filters="sRGB">
<feFlood flood-opacity="0" result="BackgroundImageFix"/>
<feBlend mode="normal" in="SourceGraphic" in2="BackgroundImageFix" result="shape"/>
<feGaussianBlur stdDeviation="32.6" result="effect1_foregroundBlur_71_131"/>
</filter>
<filter id="filter3_f_71_131" x="-15.6996" y="27.0138" width="242.399" height="262.978" filterUnits="userSpaceOnUse" color-interpolation-filters="sRGB">
<feFlood flood-opacity="0" result="BackgroundImageFix"/>
<feBlend mode="normal" in="SourceGraphic" in2="BackgroundImageFix" result="shape"/>
<feGaussianBlur stdDeviation="26.08" result="effect1_foregroundBlur_71_131"/>
</filter>
<linearGradient id="paint0_linear_71_131" x1="111.146" y1="0.578888" x2="111.146" y2="305.074" gradientUnits="userSpaceOnUse">
<stop stop-color="#FDCF1A"/>
<stop offset="1" stop-color="#FDCF1A" stop-opacity="0"/>
</linearGradient>
<linearGradient id="paint1_linear_71_131" x1="111.146" y1="1" x2="111.146" y2="305.495" gradientUnits="userSpaceOnUse">
<stop stop-color="white"/>
<stop offset="1" stop-opacity="0"/>
</linearGradient>
<linearGradient id="paint2_linear_71_131" x1="111" y1="200.924" x2="111" y2="381.924" gradientUnits="userSpaceOnUse">
<stop stop-color="#252525"/>
<stop offset="0.067877" stop-color="#252525"/>
<stop offset="0.144628" stop-color="#252525" stop-opacity="0"/>
</linearGradient>
<linearGradient id="paint3_linear_71_131" x1="111.253" y1="9.67316" x2="111.253" y2="34.3325" gradientUnits="userSpaceOnUse">
<stop stop-color="#D28900" stop-opacity="0"/>
<stop offset="1" stop-color="#D28900"/>
</linearGradient>
<linearGradient id="paint4_linear_71_131" x1="111.253" y1="9.67316" x2="111.253" y2="34.3325" gradientUnits="userSpaceOnUse">
<stop stop-color="white" stop-opacity="0"/>
<stop offset="0.5" stop-color="white"/>
<stop offset="1" stop-color="white" stop-opacity="0"/>
</linearGradient>
<linearGradient id="paint5_linear_71_131" x1="111.253" y1="9.67316" x2="111.253" y2="34.3325" gradientUnits="userSpaceOnUse">
<stop stop-color="white"/>
<stop offset="1" stop-opacity="0"/>
</linearGradient>
<clipPath id="clip0_71_131">
<rect width="222" height="321" fill="white"/>
</clipPath>
</defs>
</svg>
