<svg width="222" height="316" viewBox="0 0 222 316" fill="none" xmlns="http://www.w3.org/2000/svg">
<g clip-path="url(#clip0_71_80)">
<g filter="url(#filter0_d_71_80)">
<path d="M106.626 3.67496C109.351 1.80876 112.942 1.80876 115.667 3.67496L215.334 71.9364C219.689 74.9193 222.293 79.8583 222.293 85.1371V152.826V231.452C222.293 236.766 219.655 241.733 215.252 244.708L115.656 312.025C112.935 313.865 109.366 313.854 106.656 311.998L6.9589 243.716C2.60368 240.733 0 235.794 0 230.515V152.826V85.1371C0 79.8583 2.60368 74.9193 6.9589 71.9364L106.626 3.67496Z" fill="#D9D9D9"/>
<path d="M106.626 3.67496C109.351 1.80876 112.942 1.80876 115.667 3.67496L215.334 71.9364C219.689 74.9193 222.293 79.8583 222.293 85.1371V152.826V231.452C222.293 236.766 219.655 241.733 215.252 244.708L115.656 312.025C112.935 313.865 109.366 313.854 106.656 311.998L6.9589 243.716C2.60368 240.733 0 235.794 0 230.515V152.826V85.1371C0 79.8583 2.60368 74.9193 6.9589 71.9364L106.626 3.67496Z" fill="#1F1F1F"/>
<path d="M107.19 4.49976C109.575 2.8669 112.717 2.86703 115.102 4.49976L214.769 72.7615C218.852 75.5579 221.293 80.1886 221.293 85.1375V231.452C221.293 236.433 218.82 241.09 214.692 243.88L115.096 311.197C112.715 312.806 109.592 312.797 107.221 311.173L7.52441 242.891C3.44143 240.095 1.00004 235.464 1 230.515V85.1375L1.00684 84.6746C1.15373 79.9009 3.56887 75.4706 7.52441 72.7615L107.19 4.49976Z" stroke="url(#paint0_linear_71_80)" stroke-opacity="0.23" stroke-width="2"/>
</g>
<mask id="mask0_71_80" style="mask-type:alpha" maskUnits="userSpaceOnUse" x="0" y="2" width="223" height="312">
<path d="M106.626 3.67496C109.351 1.80876 112.942 1.80876 115.667 3.67496L215.334 71.9364C219.689 74.9193 222.293 79.8583 222.293 85.1371V152.826V230.515C222.293 235.794 219.689 240.733 215.333 243.716L115.667 311.973C112.942 313.839 109.351 313.839 106.626 311.973L6.95919 243.715C2.6038 240.732 0 235.793 0 230.514V152.826V85.1371C0 79.8583 2.60368 74.9193 6.9589 71.9364L106.626 3.67496Z" fill="#D9D9D9"/>
<path d="M106.626 3.67496C109.351 1.80876 112.942 1.80876 115.667 3.67496L215.334 71.9364C219.689 74.9193 222.293 79.8583 222.293 85.1371V152.826V230.515C222.293 235.794 219.689 240.733 215.333 243.716L115.667 311.973C112.942 313.839 109.351 313.839 106.626 311.973L6.95919 243.715C2.6038 240.732 0 235.793 0 230.514V152.826V85.1371C0 79.8583 2.60368 74.9193 6.9589 71.9364L106.626 3.67496Z" fill="#1F1F1F"/>
<path d="M106.953 4.1521C109.481 2.42123 112.812 2.42114 115.34 4.1521L215.007 72.4138C219.204 75.2888 221.714 80.0497 221.714 85.1375V230.515C221.714 235.603 219.204 240.363 215.006 243.238L115.34 311.496C112.812 313.227 109.481 313.227 106.953 311.496L7.28613 243.237C3.08856 240.362 0.579221 235.602 0.579102 230.514V85.1375C0.579102 80.0497 3.08849 75.2888 7.28613 72.4138L106.953 4.1521Z" stroke="url(#paint1_linear_71_80)" stroke-opacity="0.04" stroke-width="1.15777"/>
</mask>
<g mask="url(#mask0_71_80)">
<g filter="url(#filter1_i_71_80)">
<path d="M1 224.451C71.774 208.671 145.116 208.311 216.041 223.396L221 224.451V381.503H1V224.451Z" fill="black" fill-opacity="0.04"/>
</g>
<path d="M1.52539 224.873C72.0986 209.199 145.217 208.869 215.932 223.91L220.475 224.876V380.977H1.52539V224.873Z" stroke="url(#paint2_linear_71_80)" stroke-width="1.05028"/>
<mask id="mask1_71_80" style="mask-type:alpha" maskUnits="userSpaceOnUse" x="0" y="-3" width="222" height="228">
<path d="M0 -2.49719H222V224.503C148.778 209.331 73.2223 209.331 0 224.503V-2.49719Z" fill="#D9D9D9"/>
</mask>
<g mask="url(#mask1_71_80)">
<path opacity="0.02" d="M77.7412 421.248L7.11035 393.324L11.5771 382.039H93.2617L77.7412 421.248ZM131.038 -55.589L21.6172 220.843C13.9766 222.157 6.35764 223.639 -1.2334 225.293V278.572L-45.6895 390.884L-116.321 362.96L60.4062 -83.5128L131.038 -55.589ZM11.5771 382.039H-1.2334V278.572L21.6172 220.843C40.3062 217.628 59.1264 215.427 77.9961 214.241L11.5771 382.039ZM159.22 215.403C179.071 217.221 198.847 220.165 218.45 224.238L223.526 225.293V382.039H93.2617L159.22 215.403ZM254.469 -25.2247L159.22 215.403C132.206 212.929 105.05 212.541 77.9961 214.241L183.837 -53.1486L254.469 -25.2247Z" fill="white"/>
</g>
<g filter="url(#filter2_f_71_80)">
<rect x="85" y="297.503" width="52" height="33" fill="#F74311"/>
</g>
</g>
<g opacity="0.08" filter="url(#filter3_f_71_80)">
<rect x="31.2109" y="115.398" width="98.4" height="140.8" rx="16" transform="rotate(-24.9282 31.2109 115.398)" fill="#D9D9D9"/>
</g>
<path d="M94.8687 11.0581C96.1342 10.1572 97.649 9.6731 99.2024 9.6731H111.253H123.303C124.857 9.6731 126.372 10.1572 127.637 11.0581L138.736 18.959C140.828 20.4487 140.828 23.5568 138.736 25.0465L127.637 32.9474C126.372 33.8483 124.857 34.3324 123.303 34.3324H111.253H99.2024C97.649 34.3324 96.1342 33.8483 94.8687 32.9474L83.7702 25.0465C81.6777 23.5568 81.6777 20.4487 83.7702 18.959L94.8687 11.0581Z" fill="#B86D58"/>
<path d="M94.8687 11.0581C96.1342 10.1572 97.649 9.6731 99.2024 9.6731H111.253H123.303C124.857 9.6731 126.372 10.1572 127.637 11.0581L138.736 18.959C140.828 20.4487 140.828 23.5568 138.736 25.0465L127.637 32.9474C126.372 33.8483 124.857 34.3324 123.303 34.3324H111.253H99.2024C97.649 34.3324 96.1342 33.8483 94.8687 32.9474L83.7702 25.0465C81.6777 23.5568 81.6777 20.4487 83.7702 18.959L94.8687 11.0581Z" fill="url(#paint3_linear_71_80)" fill-opacity="0.2"/>
<path d="M94.8687 11.0581C96.1342 10.1572 97.649 9.6731 99.2024 9.6731H111.253H123.303C124.857 9.6731 126.372 10.1572 127.637 11.0581L138.736 18.959C140.828 20.4487 140.828 23.5568 138.736 25.0465L127.637 32.9474C126.372 33.8483 124.857 34.3324 123.303 34.3324H111.253H99.2024C97.649 34.3324 96.1342 33.8483 94.8687 32.9474L83.7702 25.0465C81.6777 23.5568 81.6777 20.4487 83.7702 18.959L94.8687 11.0581Z" fill="url(#paint4_linear_71_80)" fill-opacity="0.2"/>
<path d="M99.2026 10.0657H123.303C124.775 10.0657 126.211 10.5246 127.41 11.3782L138.508 19.2786C140.381 20.6118 140.381 23.3935 138.508 24.7268L127.41 32.6282C126.211 33.4817 124.775 33.9397 123.303 33.9397H99.2026C97.7309 33.9397 96.2952 33.4817 95.0962 32.6282L83.9976 24.7268C82.125 23.3936 82.1249 20.6118 83.9976 19.2786L95.0962 11.3782C96.2952 10.5246 97.7308 10.0657 99.2026 10.0657Z" stroke="url(#paint5_linear_71_80)" stroke-opacity="0.04" stroke-width="0.784824"/>
<path d="M99.2026 10.0657H123.303C124.775 10.0657 126.211 10.5246 127.41 11.3782L138.508 19.2786C140.381 20.6118 140.381 23.3935 138.508 24.7268L127.41 32.6282C126.211 33.4817 124.775 33.9397 123.303 33.9397H99.2026C97.7309 33.9397 96.2952 33.4817 95.0962 32.6282L83.9976 24.7268C82.125 23.3936 82.1249 20.6118 83.9976 19.2786L95.0962 11.3782C96.2952 10.5246 97.7308 10.0657 99.2026 10.0657Z" stroke="#FFA589" stroke-opacity="0.79" stroke-width="0.784824"/>
<path d="M98.6258 26.9773V26.4926C98.6258 26.0888 98.6976 25.7208 98.8412 25.3887C98.9848 25.0566 99.1822 24.7515 99.4335 24.4732C99.6848 24.195 99.963 23.9303 100.268 23.679C100.573 23.4276 100.887 23.1853 101.211 22.952C101.579 22.6737 101.924 22.4 102.247 22.1307C102.579 21.8615 102.849 21.5743 103.055 21.2691C103.261 20.955 103.365 20.6095 103.365 20.2325C103.365 20.053 103.32 19.8735 103.23 19.694C103.14 19.5145 102.997 19.3664 102.799 19.2497C102.611 19.1241 102.355 19.0613 102.032 19.0613C101.7 19.0613 101.426 19.1196 101.211 19.2363C100.995 19.344 100.829 19.501 100.712 19.7075C100.605 19.9049 100.551 20.1517 100.551 20.4479V20.9326H98.7469C98.7379 20.8877 98.729 20.8249 98.72 20.7441C98.711 20.6633 98.7065 20.5646 98.7065 20.4479C98.7065 19.7927 98.8546 19.2542 99.1508 18.8324C99.4559 18.4106 99.8643 18.0964 100.376 17.89C100.896 17.6836 101.484 17.5804 102.139 17.5804C102.732 17.5804 103.225 17.6656 103.62 17.8362C104.024 17.9977 104.347 18.2176 104.59 18.4958C104.832 18.7651 105.003 19.0613 105.101 19.3844C105.209 19.6985 105.263 20.0037 105.263 20.2998C105.263 20.7217 105.187 21.1076 105.034 21.4576C104.881 21.8076 104.675 22.1352 104.415 22.4404C104.154 22.7455 103.845 23.0417 103.486 23.3289C103.127 23.6072 102.745 23.8854 102.341 24.1636C102.135 24.3072 101.938 24.4463 101.749 24.5809C101.57 24.7156 101.413 24.8457 101.278 24.9714C101.152 25.088 101.054 25.2047 100.982 25.3214H105.33V26.9773H98.6258ZM106.982 26.9773V17.7419H108.826L112.542 22.7231C112.596 22.7859 112.663 22.8757 112.744 22.9924C112.825 23.1001 112.901 23.2078 112.973 23.3155C113.045 23.4232 113.094 23.5084 113.121 23.5713H113.188C113.188 23.4187 113.188 23.2706 113.188 23.127C113.188 22.9744 113.188 22.8398 113.188 22.7231V17.7419H115.087V26.9773H113.242L109.446 21.875C109.356 21.7493 109.262 21.6102 109.163 21.4576C109.064 21.305 108.992 21.1884 108.948 21.1076H108.88C108.88 21.2422 108.88 21.3768 108.88 21.5115C108.88 21.6371 108.88 21.7583 108.88 21.875V26.9773H106.982ZM117.132 26.9773V17.7419H120.901C121.861 17.7419 122.678 17.908 123.351 18.24C124.024 18.5721 124.541 19.0792 124.9 19.7613C125.268 20.4345 125.452 21.3006 125.452 22.3596C125.452 23.4097 125.268 24.2758 124.9 24.9579C124.541 25.64 124.024 26.1471 123.351 26.4792C122.678 26.8113 121.861 26.9773 120.901 26.9773H117.132ZM119.138 25.3214H120.888C121.292 25.3214 121.651 25.2631 121.965 25.1464C122.279 25.0297 122.539 24.8592 122.746 24.6348C122.952 24.4014 123.109 24.1142 123.217 23.7732C123.324 23.4232 123.378 23.0193 123.378 22.5616V22.1577C123.378 21.6999 123.324 21.3006 123.217 20.9595C123.109 20.6095 122.952 20.3223 122.746 20.0979C122.539 19.8645 122.279 19.6895 121.965 19.5729C121.651 19.4472 121.292 19.3844 120.888 19.3844H119.138V25.3214Z" fill="black"/>
</g>
<defs>
<filter id="filter0_d_71_80" x="-36.9" y="-30.6247" width="296.092" height="384.922" filterUnits="userSpaceOnUse" color-interpolation-filters="sRGB">
<feFlood flood-opacity="0" result="BackgroundImageFix"/>
<feColorMatrix in="SourceAlpha" type="matrix" values="0 0 0 0 0 0 0 0 0 0 0 0 0 0 0 0 0 0 127 0" result="hardAlpha"/>
<feOffset dy="4"/>
<feGaussianBlur stdDeviation="18.45"/>
<feComposite in2="hardAlpha" operator="out"/>
<feColorMatrix type="matrix" values="0 0 0 0 0 0 0 0 0 0 0 0 0 0 0 0 0 0 0.24 0"/>
<feBlend mode="normal" in2="BackgroundImageFix" result="effect1_dropShadow_71_80"/>
<feBlend mode="normal" in="SourceGraphic" in2="effect1_dropShadow_71_80" result="shape"/>
</filter>
<filter id="filter1_i_71_80" x="1" y="212.343" width="220" height="173.16" filterUnits="userSpaceOnUse" color-interpolation-filters="sRGB">
<feFlood flood-opacity="0" result="BackgroundImageFix"/>
<feBlend mode="normal" in="SourceGraphic" in2="BackgroundImageFix" result="shape"/>
<feColorMatrix in="SourceAlpha" type="matrix" values="0 0 0 0 0 0 0 0 0 0 0 0 0 0 0 0 0 0 127 0" result="hardAlpha"/>
<feOffset dy="4"/>
<feGaussianBlur stdDeviation="15.15"/>
<feComposite in2="hardAlpha" operator="arithmetic" k2="-1" k3="1"/>
<feColorMatrix type="matrix" values="0 0 0 0 0 0 0 0 0 0 0 0 0 0 0 0 0 0 0.38 0"/>
<feBlend mode="normal" in2="shape" result="effect1_innerShadow_71_80"/>
</filter>
<filter id="filter2_f_71_80" x="19.8" y="232.303" width="182.4" height="163.4" filterUnits="userSpaceOnUse" color-interpolation-filters="sRGB">
<feFlood flood-opacity="0" result="BackgroundImageFix"/>
<feBlend mode="normal" in="SourceGraphic" in2="BackgroundImageFix" result="shape"/>
<feGaussianBlur stdDeviation="32.6" result="effect1_foregroundBlur_71_80"/>
</filter>
<filter id="filter3_f_71_80" x="-15.6996" y="27.0138" width="242.399" height="262.978" filterUnits="userSpaceOnUse" color-interpolation-filters="sRGB">
<feFlood flood-opacity="0" result="BackgroundImageFix"/>
<feBlend mode="normal" in="SourceGraphic" in2="BackgroundImageFix" result="shape"/>
<feGaussianBlur stdDeviation="26.08" result="effect1_foregroundBlur_71_80"/>
</filter>
<linearGradient id="paint0_linear_71_80" x1="111.146" y1="0.578857" x2="111.146" y2="315.074" gradientUnits="userSpaceOnUse">
<stop stop-color="#F5724E"/>
<stop offset="1" stop-color="#F5724E" stop-opacity="0"/>
</linearGradient>
<linearGradient id="paint1_linear_71_80" x1="111.146" y1="0.578857" x2="111.146" y2="305.074" gradientUnits="userSpaceOnUse">
<stop stop-color="white"/>
<stop offset="1" stop-opacity="0"/>
</linearGradient>
<linearGradient id="paint2_linear_71_80" x1="111" y1="200.503" x2="111" y2="381.503" gradientUnits="userSpaceOnUse">
<stop stop-color="#252525"/>
<stop offset="0.067877" stop-color="#252525"/>
<stop offset="0.144628" stop-color="#252525" stop-opacity="0"/>
</linearGradient>
<linearGradient id="paint3_linear_71_80" x1="111.253" y1="9.6731" x2="111.253" y2="34.3324" gradientUnits="userSpaceOnUse">
<stop stop-color="#891E01" stop-opacity="0"/>
<stop offset="1" stop-color="#891E01"/>
</linearGradient>
<linearGradient id="paint4_linear_71_80" x1="111.253" y1="9.6731" x2="111.253" y2="34.3324" gradientUnits="userSpaceOnUse">
<stop stop-color="white" stop-opacity="0"/>
<stop offset="0.5" stop-color="white"/>
<stop offset="1" stop-color="white" stop-opacity="0"/>
</linearGradient>
<linearGradient id="paint5_linear_71_80" x1="111.253" y1="9.6731" x2="111.253" y2="34.3324" gradientUnits="userSpaceOnUse">
<stop stop-color="white"/>
<stop offset="1" stop-opacity="0"/>
</linearGradient>
<clipPath id="clip0_71_80">
<rect width="222" height="316" fill="white"/>
</clipPath>
</defs>
</svg>
