<svg width="222" height="316" viewBox="0 0 222 316" fill="none" xmlns="http://www.w3.org/2000/svg">
<g clip-path="url(#clip0_71_180)">
<g filter="url(#filter0_d_71_180)">
<path d="M106.626 3.67496C109.351 1.80876 112.942 1.80876 115.667 3.67496L215.334 71.9364C219.689 74.9193 222.293 79.8583 222.293 85.1371V152.826V231.452C222.293 236.766 219.655 241.733 215.252 244.708L115.656 312.025C112.935 313.865 109.366 313.854 106.656 311.998L6.9589 243.716C2.60368 240.733 0 235.794 0 230.515V152.826V85.1371C0 79.8583 2.60368 74.9193 6.9589 71.9364L106.626 3.67496Z" fill="#D9D9D9"/>
<path d="M106.626 3.67496C109.351 1.80876 112.942 1.80876 115.667 3.67496L215.334 71.9364C219.689 74.9193 222.293 79.8583 222.293 85.1371V152.826V231.452C222.293 236.766 219.655 241.733 215.252 244.708L115.656 312.025C112.935 313.865 109.366 313.854 106.656 311.998L6.9589 243.716C2.60368 240.733 0 235.794 0 230.515V152.826V85.1371C0 79.8583 2.60368 74.9193 6.9589 71.9364L106.626 3.67496Z" fill="#1F1F1F"/>
<path d="M107.19 4.49976C109.575 2.8669 112.717 2.86703 115.102 4.49976L214.769 72.7615C218.852 75.5579 221.293 80.1886 221.293 85.1375V231.452C221.293 236.433 218.82 241.09 214.692 243.88L115.096 311.197C112.715 312.806 109.592 312.797 107.221 311.173L7.52441 242.891C3.44143 240.095 1.00004 235.464 1 230.515V85.1375L1.00684 84.6746C1.15373 79.9009 3.56887 75.4706 7.52441 72.7615L107.19 4.49976Z" stroke="url(#paint0_linear_71_180)" stroke-opacity="0.23" stroke-width="2"/>
</g>
<mask id="mask0_71_180" style="mask-type:alpha" maskUnits="userSpaceOnUse" x="0" y="2" width="223" height="312">
<path d="M106.626 3.67496C109.351 1.80876 112.942 1.80876 115.667 3.67496L215.334 71.9364C219.689 74.9193 222.293 79.8583 222.293 85.1371V152.826V230.515C222.293 235.794 219.689 240.733 215.333 243.716L115.667 311.973C112.942 313.839 109.351 313.839 106.626 311.973L6.95919 243.715C2.6038 240.732 0 235.793 0 230.514V152.826V85.1371C0 79.8583 2.60368 74.9193 6.9589 71.9364L106.626 3.67496Z" fill="#D9D9D9"/>
<path d="M106.626 3.67496C109.351 1.80876 112.942 1.80876 115.667 3.67496L215.334 71.9364C219.689 74.9193 222.293 79.8583 222.293 85.1371V152.826V230.515C222.293 235.794 219.689 240.733 215.333 243.716L115.667 311.973C112.942 313.839 109.351 313.839 106.626 311.973L6.95919 243.715C2.6038 240.732 0 235.793 0 230.514V152.826V85.1371C0 79.8583 2.60368 74.9193 6.9589 71.9364L106.626 3.67496Z" fill="#1F1F1F"/>
<path d="M106.953 4.1521C109.481 2.42123 112.812 2.42114 115.34 4.1521L215.007 72.4138C219.204 75.2888 221.714 80.0497 221.714 85.1375V230.515C221.714 235.603 219.204 240.363 215.006 243.238L115.34 311.496C112.812 313.227 109.481 313.227 106.953 311.496L7.28613 243.237C3.08856 240.362 0.579221 235.602 0.579102 230.514V85.1375C0.579102 80.0497 3.08849 75.2888 7.28613 72.4138L106.953 4.1521Z" stroke="url(#paint1_linear_71_180)" stroke-opacity="0.04" stroke-width="1.15777"/>
</mask>
<g mask="url(#mask0_71_180)">
<g filter="url(#filter1_i_71_180)">
<path d="M1 224.451C71.774 208.671 145.116 208.311 216.041 223.396L221 224.451V381.503H1V224.451Z" fill="black" fill-opacity="0.04"/>
</g>
<path d="M1.52539 224.873C72.0986 209.199 145.217 208.869 215.932 223.91L220.475 224.876V380.977H1.52539V224.873Z" stroke="url(#paint2_linear_71_180)" stroke-width="1.05028"/>
<mask id="mask1_71_180" style="mask-type:alpha" maskUnits="userSpaceOnUse" x="0" y="-3" width="222" height="228">
<path d="M0 -2.49719H222V224.503C148.778 209.331 73.2223 209.331 0 224.503V-2.49719Z" fill="#D9D9D9"/>
</mask>
<g mask="url(#mask1_71_180)">
<path opacity="0.02" d="M77.7412 421.248L7.11035 393.324L11.5771 382.039H93.2617L77.7412 421.248ZM131.038 -55.589L21.6172 220.843C13.9766 222.157 6.35764 223.639 -1.2334 225.293V278.572L-45.6895 390.884L-116.321 362.96L60.4062 -83.5128L131.038 -55.589ZM11.5771 382.039H-1.2334V278.572L21.6172 220.843C40.3062 217.628 59.1264 215.427 77.9961 214.241L11.5771 382.039ZM159.22 215.403C179.071 217.221 198.847 220.165 218.45 224.238L223.526 225.293V382.039H93.2617L159.22 215.403ZM254.469 -25.2247L159.22 215.403C132.206 212.929 105.05 212.541 77.9961 214.241L183.837 -53.1486L254.469 -25.2247Z" fill="white"/>
</g>
<g filter="url(#filter2_f_71_180)">
<rect x="85" y="297.503" width="52" height="33" fill="#D8D8D8"/>
</g>
</g>
<g opacity="0.08" filter="url(#filter3_f_71_180)">
<rect x="31.2109" y="115.398" width="98.4" height="140.8" rx="16" transform="rotate(-24.9282 31.2109 115.398)" fill="#D9D9D9"/>
</g>
<path d="M94.6207 11.2191C95.8675 10.3315 97.36 9.85449 98.8906 9.85449H110.764H122.637C124.168 9.85449 125.66 10.3315 126.907 11.2191L137.842 19.0038C139.904 20.4716 139.904 23.5341 137.842 25.0018L126.907 32.7866C125.66 33.6742 124.168 34.1512 122.637 34.1512H110.764H98.8906C97.36 34.1512 95.8675 33.6742 94.6207 32.7866L83.6854 25.0019C81.6236 23.5341 81.6236 20.4716 83.6854 19.0038L94.6207 11.2191Z" fill="#B5B5B5"/>
<path d="M94.6207 11.2191C95.8675 10.3315 97.36 9.85449 98.8906 9.85449H110.764H122.637C124.168 9.85449 125.66 10.3315 126.907 11.2191L137.842 19.0038C139.904 20.4716 139.904 23.5341 137.842 25.0018L126.907 32.7866C125.66 33.6742 124.168 34.1512 122.637 34.1512H110.764H98.8906C97.36 34.1512 95.8675 33.6742 94.6207 32.7866L83.6854 25.0019C81.6236 23.5341 81.6236 20.4716 83.6854 19.0038L94.6207 11.2191Z" fill="url(#paint3_linear_71_180)" fill-opacity="0.2"/>
<path d="M94.6207 11.2191C95.8675 10.3315 97.36 9.85449 98.8906 9.85449H110.764H122.637C124.168 9.85449 125.66 10.3315 126.907 11.2191L137.842 19.0038C139.904 20.4716 139.904 23.5341 137.842 25.0018L126.907 32.7866C125.66 33.6742 124.168 34.1512 122.637 34.1512H110.764H98.8906C97.36 34.1512 95.8675 33.6742 94.6207 32.7866L83.6854 25.0019C81.6236 23.5341 81.6236 20.4716 83.6854 19.0038L94.6207 11.2191Z" fill="url(#paint4_linear_71_180)" fill-opacity="0.2"/>
<path d="M98.8906 10.2412H122.637C124.087 10.2412 125.501 10.6932 126.683 11.5342L137.618 19.3184C139.463 20.6319 139.463 23.3728 137.618 24.6865L126.683 32.4717C125.501 33.3126 124.087 33.7646 122.637 33.7646H98.8906C97.4404 33.7646 96.0261 33.3127 94.8447 32.4717L83.9092 24.6865C82.0644 23.3728 82.0641 20.6319 83.9092 19.3184L94.8447 11.5342C96.0261 10.6932 97.4404 10.2412 98.8906 10.2412Z" stroke="url(#paint5_linear_71_180)" stroke-opacity="0.04" stroke-width="0.773283"/>
<path d="M98.8906 10.2412H122.637C124.087 10.2412 125.501 10.6932 126.683 11.5342L137.618 19.3184C139.463 20.6319 139.463 23.3728 137.618 24.6865L126.683 32.4717C125.501 33.3126 124.087 33.7646 122.637 33.7646H98.8906C97.4404 33.7646 96.0261 33.3127 94.8447 32.4717L83.9092 24.6865C82.0644 23.3728 82.0641 20.6319 83.9092 19.3184L94.8447 11.5342C96.0261 10.6932 97.4404 10.2412 98.8906 10.2412Z" stroke="#EEEEEE" stroke-opacity="0.79" stroke-width="0.773283"/>
<path d="M101.638 26.2716C100.884 26.2716 100.251 26.1549 99.7399 25.9216C99.2284 25.6883 98.8425 25.3653 98.5823 24.9525C98.3221 24.5397 98.192 24.0641 98.192 23.5257V23.2969H100.009V23.5526C100.009 23.9475 100.139 24.2571 100.399 24.4814C100.669 24.7057 101.054 24.8179 101.557 24.8179C102.042 24.8179 102.418 24.7057 102.688 24.4814C102.957 24.2571 103.091 23.9116 103.091 23.445C103.091 23.095 103.02 22.8258 102.876 22.6374C102.732 22.4489 102.544 22.3143 102.311 22.2336C102.086 22.1528 101.84 22.1124 101.57 22.1124H100.749V20.6991H101.557C101.808 20.6991 102.033 20.6543 102.23 20.5645C102.436 20.4658 102.598 20.3222 102.715 20.1338C102.84 19.9454 102.903 19.7031 102.903 19.407C102.903 19.1288 102.845 18.9 102.728 18.7205C102.62 18.5321 102.463 18.393 102.257 18.3032C102.059 18.2135 101.831 18.1686 101.57 18.1686C101.31 18.1686 101.072 18.2135 100.857 18.3032C100.651 18.393 100.489 18.5276 100.372 18.707C100.256 18.8865 100.197 19.1108 100.197 19.38V19.5819H98.4073V19.2454C98.4073 18.7429 98.5374 18.3032 98.7977 17.9264C99.0669 17.5405 99.4437 17.2444 99.9283 17.038C100.413 16.8226 100.974 16.715 101.611 16.715C102.248 16.715 102.804 16.8137 103.28 17.0111C103.764 17.2085 104.137 17.5001 104.397 17.886C104.666 18.2629 104.801 18.7115 104.801 19.232C104.801 19.5819 104.734 19.8915 104.599 20.1607C104.473 20.4299 104.303 20.6587 104.087 20.8472C103.872 21.0267 103.625 21.1792 103.347 21.3048V21.3587C103.832 21.5022 104.227 21.767 104.532 22.1528C104.846 22.5297 105.003 23.0187 105.003 23.6199C104.994 24.1583 104.85 24.625 104.572 25.0198C104.303 25.4146 103.917 25.7242 103.414 25.9485C102.912 26.1639 102.32 26.2716 101.638 26.2716ZM106.641 26.11V16.8765H111.702C112.384 16.8765 112.949 16.9976 113.398 17.2399C113.855 17.4822 114.196 17.8232 114.421 18.2629C114.645 18.6936 114.757 19.1916 114.757 19.7569C114.757 20.3581 114.623 20.8921 114.353 21.3587C114.084 21.8163 113.694 22.1663 113.182 22.4085L115.067 26.11H112.846L111.217 22.745H108.646V26.11H106.641ZM108.646 21.1568H111.433C111.836 21.1568 112.15 21.0356 112.375 20.7933C112.599 20.5421 112.711 20.2056 112.711 19.7838C112.711 19.5146 112.662 19.2858 112.563 19.0974C112.465 18.9 112.321 18.7519 112.133 18.6532C111.944 18.5545 111.711 18.5051 111.433 18.5051H108.646V21.1568ZM116.473 26.11V16.8765H120.242C121.202 16.8765 122.018 17.0425 122.691 17.3745C123.364 17.7065 123.88 18.2135 124.239 18.8955C124.607 19.5685 124.791 20.4344 124.791 21.4933C124.791 22.5431 124.607 23.4091 124.239 24.091C123.88 24.773 123.364 25.28 122.691 25.612C122.018 25.944 121.202 26.11 120.242 26.11H116.473ZM118.478 24.4545H120.228C120.632 24.4545 120.991 24.3961 121.305 24.2795C121.619 24.1628 121.879 23.9923 122.086 23.768C122.292 23.5347 122.449 23.2476 122.557 22.9066C122.665 22.5566 122.718 22.1528 122.718 21.6952V21.2914C122.718 20.8337 122.665 20.4344 122.557 20.0934C122.449 19.7435 122.292 19.4563 122.086 19.232C121.879 18.9987 121.619 18.8237 121.305 18.707C120.991 18.5814 120.632 18.5186 120.228 18.5186H118.478V24.4545Z" fill="black"/>
</g>
<defs>
<filter id="filter0_d_71_180" x="-36.9" y="-30.6247" width="296.092" height="384.922" filterUnits="userSpaceOnUse" color-interpolation-filters="sRGB">
<feFlood flood-opacity="0" result="BackgroundImageFix"/>
<feColorMatrix in="SourceAlpha" type="matrix" values="0 0 0 0 0 0 0 0 0 0 0 0 0 0 0 0 0 0 127 0" result="hardAlpha"/>
<feOffset dy="4"/>
<feGaussianBlur stdDeviation="18.45"/>
<feComposite in2="hardAlpha" operator="out"/>
<feColorMatrix type="matrix" values="0 0 0 0 0 0 0 0 0 0 0 0 0 0 0 0 0 0 0.24 0"/>
<feBlend mode="normal" in2="BackgroundImageFix" result="effect1_dropShadow_71_180"/>
<feBlend mode="normal" in="SourceGraphic" in2="effect1_dropShadow_71_180" result="shape"/>
</filter>
<filter id="filter1_i_71_180" x="1" y="212.343" width="220" height="173.16" filterUnits="userSpaceOnUse" color-interpolation-filters="sRGB">
<feFlood flood-opacity="0" result="BackgroundImageFix"/>
<feBlend mode="normal" in="SourceGraphic" in2="BackgroundImageFix" result="shape"/>
<feColorMatrix in="SourceAlpha" type="matrix" values="0 0 0 0 0 0 0 0 0 0 0 0 0 0 0 0 0 0 127 0" result="hardAlpha"/>
<feOffset dy="4"/>
<feGaussianBlur stdDeviation="15.15"/>
<feComposite in2="hardAlpha" operator="arithmetic" k2="-1" k3="1"/>
<feColorMatrix type="matrix" values="0 0 0 0 0 0 0 0 0 0 0 0 0 0 0 0 0 0 0.38 0"/>
<feBlend mode="normal" in2="shape" result="effect1_innerShadow_71_180"/>
</filter>
<filter id="filter2_f_71_180" x="19.8" y="232.303" width="182.4" height="163.4" filterUnits="userSpaceOnUse" color-interpolation-filters="sRGB">
<feFlood flood-opacity="0" result="BackgroundImageFix"/>
<feBlend mode="normal" in="SourceGraphic" in2="BackgroundImageFix" result="shape"/>
<feGaussianBlur stdDeviation="32.6" result="effect1_foregroundBlur_71_180"/>
</filter>
<filter id="filter3_f_71_180" x="-15.6996" y="27.0138" width="242.399" height="262.978" filterUnits="userSpaceOnUse" color-interpolation-filters="sRGB">
<feFlood flood-opacity="0" result="BackgroundImageFix"/>
<feBlend mode="normal" in="SourceGraphic" in2="BackgroundImageFix" result="shape"/>
<feGaussianBlur stdDeviation="26.08" result="effect1_foregroundBlur_71_180"/>
</filter>
<linearGradient id="paint0_linear_71_180" x1="111.146" y1="0.578857" x2="111.146" y2="315.074" gradientUnits="userSpaceOnUse">
<stop stop-color="#D8D8D8"/>
<stop offset="1" stop-color="#D8D8D8" stop-opacity="0"/>
</linearGradient>
<linearGradient id="paint1_linear_71_180" x1="111.146" y1="0.578857" x2="111.146" y2="305.074" gradientUnits="userSpaceOnUse">
<stop stop-color="white"/>
<stop offset="1" stop-opacity="0"/>
</linearGradient>
<linearGradient id="paint2_linear_71_180" x1="111" y1="200.503" x2="111" y2="381.503" gradientUnits="userSpaceOnUse">
<stop stop-color="#252525"/>
<stop offset="0.067877" stop-color="#252525"/>
<stop offset="0.144628" stop-color="#252525" stop-opacity="0"/>
</linearGradient>
<linearGradient id="paint3_linear_71_180" x1="110.764" y1="9.85449" x2="110.764" y2="34.1512" gradientUnits="userSpaceOnUse">
<stop stop-color="#BBBBBB" stop-opacity="0"/>
<stop offset="1" stop-color="#BBBBBB"/>
</linearGradient>
<linearGradient id="paint4_linear_71_180" x1="110.764" y1="9.85449" x2="110.764" y2="34.1512" gradientUnits="userSpaceOnUse">
<stop stop-color="white" stop-opacity="0"/>
<stop offset="0.5" stop-color="white"/>
<stop offset="1" stop-color="white" stop-opacity="0"/>
</linearGradient>
<linearGradient id="paint5_linear_71_180" x1="110.764" y1="9.85449" x2="110.764" y2="34.1512" gradientUnits="userSpaceOnUse">
<stop stop-color="white"/>
<stop offset="1" stop-opacity="0"/>
</linearGradient>
<clipPath id="clip0_71_180">
<rect width="222" height="316" fill="white"/>
</clipPath>
</defs>
</svg>
