<svg width="137" height="24" viewBox="0 0 137 24" fill="none" xmlns="http://www.w3.org/2000/svg">
<path d="M12.6979 2.03516C14.889 0.703981 17.4035 0 19.9672 0H68.2964H117.73C120.601 0 123.403 0.882523 125.755 2.52799L134.61 8.72228C136.887 10.3146 136.887 13.6854 134.61 15.2777L125.755 21.472C123.403 23.1175 120.601 24 117.73 24H68.2964H19.9672C17.4035 24 14.889 23.296 12.6979 21.9648L1.92308 15.4185C-0.641 13.8607 -0.641 10.1393 1.92308 8.58148L12.6979 2.03516Z" fill="#403B27" fill-opacity="0.58"/>
<path d="M12.6979 2.03516C14.889 0.703981 17.4035 0 19.9672 0H68.2964H117.73C120.601 0 123.403 0.882523 125.755 2.52799L134.61 8.72228C136.887 10.3146 136.887 13.6854 134.61 15.2777L125.755 21.472C123.403 23.1175 120.601 24 117.73 24H68.2964H19.9672C17.4035 24 14.889 23.296 12.6979 21.9648L1.92308 15.4185C-0.641 13.8607 -0.641 10.1393 1.92308 8.58148L12.6979 2.03516Z" fill="url(#paint0_linear_76_276)" fill-opacity="0.15"/>
<path d="M12.6979 2.03516C14.889 0.703981 17.4035 0 19.9672 0H68.2964H117.73C120.601 0 123.403 0.882523 125.755 2.52799L134.61 8.72228C136.887 10.3146 136.887 13.6854 134.61 15.2777L125.755 21.472C123.403 23.1175 120.601 24 117.73 24H68.2964H19.9672C17.4035 24 14.889 23.296 12.6979 21.9648L1.92308 15.4185C-0.641 13.8607 -0.641 10.1393 1.92308 8.58148L12.6979 2.03516Z" fill="url(#paint1_linear_76_276)" fill-opacity="0.04"/>
<path d="M19.9673 0.525391H117.731C120.494 0.525486 123.19 1.37453 125.454 2.95801L134.309 9.15234C136.287 10.5356 136.287 13.4644 134.309 14.8477L125.454 21.042C123.19 22.6255 120.494 23.4745 117.731 23.4746H19.9673C17.4997 23.4746 15.0791 22.7969 12.9702 21.5156L2.1958 14.9697C-0.0316517 13.6164 -0.0316517 10.3836 2.1958 9.03027L12.9702 2.48438C15.0791 1.20312 17.4997 0.525391 19.9673 0.525391Z" stroke="url(#paint2_linear_76_276)" stroke-opacity="0.04" stroke-width="1.05028"/>
<defs>
<linearGradient id="paint0_linear_76_276" x1="68.2964" y1="0" x2="68.2964" y2="24" gradientUnits="userSpaceOnUse">
<stop stop-color="#D2AF00" stop-opacity="0"/>
<stop offset="1" stop-color="#D2AF00"/>
</linearGradient>
<linearGradient id="paint1_linear_76_276" x1="68.2964" y1="0" x2="68.2964" y2="24" gradientUnits="userSpaceOnUse">
<stop stop-color="white" stop-opacity="0"/>
<stop offset="0.5" stop-color="white"/>
<stop offset="1" stop-color="white" stop-opacity="0"/>
</linearGradient>
<linearGradient id="paint2_linear_76_276" x1="68.2964" y1="0" x2="68.2964" y2="24" gradientUnits="userSpaceOnUse">
<stop stop-color="white"/>
<stop offset="1" stop-opacity="0"/>
</linearGradient>
</defs>
</svg>
