<svg xmlns="http://www.w3.org/2000/svg" width="495" height="510" viewBox="0 0 495 510" version="1.1">
	<path d="M 257 11.500 C 256.315 12.325, 254.565 13, 253.110 13 C 251.655 13, 248.897 14.049, 246.982 15.332 C 242.626 18.249, 237.062 21, 235.521 21 C 233.916 21, 229.819 25.486, 230.658 26.324 C 231.598 27.264, 235 27.173, 235 26.208 C 235 25.243, 246.213 20, 248.277 20 C 249.090 20, 250.333 19.303, 251.040 18.451 C 252.059 17.225, 254.252 16.949, 261.602 17.125 C 266.703 17.247, 271.468 16.893, 272.189 16.338 C 276.702 12.868, 303.427 11.717, 308 14.796 C 310.163 16.252, 320.569 17.853, 328.745 17.987 C 329.980 18.007, 332.455 18.916, 334.245 20.008 C 336.035 21.099, 338.724 21.994, 340.220 21.996 C 342.080 21.999, 343.641 22.948, 345.158 25 C 346.378 26.650, 348.079 28.014, 348.938 28.032 C 349.797 28.049, 351.374 28.724, 352.441 29.532 C 353.509 30.339, 355.122 31, 356.027 31 C 356.932 31, 359.214 32.718, 361.099 34.818 C 362.984 36.918, 366.996 40.269, 370.013 42.265 C 376.521 46.571, 380 49.500, 380 50.674 C 380 51.570, 387.337 56.410, 389.023 56.625 C 389.560 56.694, 390.450 56.806, 391 56.875 C 391.550 56.944, 392 57.587, 392 58.304 C 392 60.763, 403.803 69.863, 405.192 68.475 C 405.451 68.215, 406.265 69.127, 407.001 70.502 C 408.698 73.674, 409.617 73.661, 410.422 70.454 C 411.240 67.198, 410.467 66, 407.548 66 C 406.264 66, 404.937 65.278, 404.599 64.396 C 404.260 63.514, 403.356 63.033, 402.589 63.328 C 401.822 63.622, 400.363 63.233, 399.347 62.463 C 398.331 61.693, 396.677 61.049, 395.672 61.032 C 394.181 61.006, 393.904 60.331, 394.172 57.372 C 394.422 54.608, 394.037 53.478, 392.553 52.622 C 391.482 52.005, 389.462 50.487, 388.063 49.250 C 386.665 48.012, 384.969 47, 384.295 47 C 382.754 47, 381 43.803, 381 40.994 C 381 39.390, 380.438 38.902, 378.750 39.039 C 373.734 39.445, 371.840 38.865, 368.843 36 C 367.116 34.350, 365.095 33, 364.352 33 C 363.608 33, 363 32.380, 363 31.622 C 363 30.865, 362.315 29.676, 361.477 28.981 C 360.598 28.252, 360.204 26.932, 360.545 25.859 C 361.061 24.231, 360.563 24, 356.535 24 C 351.425 24, 346.219 22.177, 344.128 19.655 C 343.373 18.745, 342.114 18, 341.330 18 C 340.546 18, 338.862 16.875, 337.588 15.500 C 335.210 12.934, 332.133 12.267, 330.449 13.951 C 329.848 14.552, 326.741 14.146, 321.999 12.846 C 315.445 11.049, 311.924 10.811, 294.066 10.958 C 282.827 11.051, 272.844 11.548, 271.882 12.063 C 269.219 13.489, 264.039 13.182, 262.357 11.500 C 261.532 10.675, 260.269 10, 259.551 10 C 258.833 10, 257.685 10.675, 257 11.500 M 272.500 20.582 C 271.400 21.417, 269.088 21.981, 267.362 21.835 C 265.636 21.689, 263.611 22.055, 262.862 22.649 C 262.113 23.243, 258.593 23.732, 255.041 23.736 C 249.566 23.743, 248.367 24.068, 247.169 25.872 C 246.392 27.042, 244.859 28, 243.762 28 C 240.011 28, 232.130 31.393, 231.655 33.213 C 231.319 34.498, 230.208 35, 227.701 35 C 224.025 35, 222.325 36.925, 224.278 38.878 C 224.895 39.495, 226.408 40, 227.641 40 C 228.874 40, 230.160 40.450, 230.500 41 C 230.840 41.550, 233.004 42.015, 235.309 42.033 L 239.500 42.067 237.139 44.033 C 235.232 45.622, 233.267 46, 226.921 46 C 220.535 46, 219.165 46.267, 219.609 47.423 C 220.257 49.112, 217.842 50.564, 212.818 51.506 C 210.813 51.882, 208.193 53.103, 206.996 54.219 C 205.798 55.334, 202.272 57.589, 199.159 59.228 C 196.047 60.868, 192.129 63.512, 190.452 65.105 C 188.676 66.792, 186.307 68, 184.775 68 C 183.161 68, 181.386 68.966, 180.179 70.500 C 178.991 72.009, 177.193 73, 175.639 73 C 173.877 73, 170.774 75.064, 165.796 79.548 C 161.797 83.149, 158.160 86.749, 157.713 87.548 C 157.266 88.347, 156.056 89, 155.023 89 C 153.990 89, 152.308 90.064, 151.285 91.365 C 150.261 92.666, 148.541 94.026, 147.462 94.387 C 146.383 94.748, 140.617 99.751, 134.649 105.503 C 123.408 116.339, 122.085 118.556, 122.024 126.669 C 121.995 130.517, 118.966 136.178, 117.276 135.543 C 116.603 135.290, 115.703 135.627, 115.276 136.292 C 114.849 136.956, 113.497 138.349, 112.271 139.386 C 110.072 141.247, 110.015 141.240, 108.136 138.920 L 106.231 136.568 102.147 139.398 C 99.900 140.955, 97.802 143.049, 97.484 144.052 C 97.165 145.054, 95.576 146.462, 93.953 147.181 C 92.249 147.935, 91 149.255, 91 150.300 C 91 151.297, 89.702 153.325, 88.115 154.806 C 86.528 156.288, 84.930 158.489, 84.564 159.699 C 84.197 160.908, 83.089 162.154, 82.101 162.468 C 81.112 162.782, 79.806 164.131, 79.197 165.466 C 78.589 166.802, 77.010 168.603, 75.688 169.469 C 73.899 170.641, 73.409 171.686, 73.767 173.561 C 74.168 175.658, 73.724 176.278, 71.124 177.259 C 69.194 177.988, 68 179.137, 68 180.267 C 68 181.273, 66.965 183.087, 65.700 184.298 C 64.421 185.522, 63.574 187.319, 63.791 188.345 C 64.031 189.475, 62.889 191.448, 60.842 193.436 C 59.004 195.221, 56.656 197.926, 55.624 199.446 C 54.167 201.593, 53.550 201.908, 52.860 200.855 C 52.313 200.020, 52.210 201.078, 52.592 203.612 C 53.117 207.100, 52.854 208.058, 50.856 209.919 C 49.560 211.126, 48.410 213.273, 48.300 214.690 C 48.190 216.106, 47.173 218.251, 46.041 219.457 C 44.908 220.662, 44.222 221.888, 44.515 222.182 C 44.808 222.475, 44.362 223.284, 43.524 223.980 C 42.583 224.761, 42 226.921, 42 229.629 C 42 233.059, 41.456 234.486, 39.500 236.187 C 38.125 237.382, 37 239.342, 37 240.541 C 37 241.740, 35.934 244.292, 34.631 246.212 C 32.998 248.617, 32.126 251.575, 31.826 255.725 C 31.487 260.411, 30.793 262.458, 28.695 264.950 C 26.613 267.425, 25.999 269.216, 25.994 272.827 C 25.990 275.397, 25.352 278.719, 24.574 280.209 C 23.394 282.473, 23.369 283.812, 24.426 288.359 C 25.521 293.070, 25.477 294.184, 24.096 296.651 C 23.218 298.218, 22.109 299.785, 21.631 300.133 C 21.153 300.480, 20.606 308.260, 20.416 317.421 C 20.226 326.582, 19.784 334.540, 19.435 335.106 C 19.085 335.672, 19.762 336.387, 20.939 336.694 C 23.954 337.483, 26 342.034, 26 347.950 C 26 350.728, 26.376 353, 26.836 353 C 27.297 353, 28.905 355.436, 30.412 358.413 C 31.918 361.390, 34.017 364.610, 35.075 365.568 C 36.134 366.526, 37.001 368.028, 37.001 368.905 C 37.002 369.782, 38.113 371.791, 39.470 373.370 C 40.828 374.948, 42.512 377.535, 43.213 379.120 C 43.914 380.704, 44.805 382, 45.193 382 C 45.580 382, 47.111 383.125, 48.595 384.500 C 50.078 385.875, 51.861 387, 52.557 387 C 53.253 387, 54.875 388.247, 56.161 389.772 C 57.447 391.296, 60.160 393.329, 62.188 394.289 C 64.217 395.249, 66.173 396.968, 66.535 398.109 C 67.038 399.695, 67.700 400.021, 69.346 399.494 C 73.362 398.211, 78.259 399.020, 80.892 401.402 C 81.973 402.380, 84.681 403.590, 86.911 404.091 C 92.169 405.273, 117.351 404.418, 120.065 402.965 C 121.313 402.297, 125.812 401.979, 131.244 402.174 C 137.866 402.411, 140.446 402.161, 140.750 401.250 C 140.979 400.562, 141.974 400, 142.961 400 C 143.948 400, 145.315 399.325, 146 398.500 C 146.846 397.481, 149.111 397, 153.063 397 C 156.264 397, 159.142 396.578, 159.461 396.063 C 160.702 394.055, 166.528 392, 170.979 392 C 174.670 392, 176.145 391.475, 178 389.500 C 179.292 388.125, 181.170 387, 182.174 387 C 183.178 387, 184.863 386.137, 185.917 385.083 C 186.971 384.029, 188.066 383.399, 188.351 383.684 C 188.635 383.968, 190.038 383.143, 191.468 381.851 C 192.898 380.558, 194.952 378.713, 196.034 377.750 C 197.115 376.788, 199.070 376, 200.378 376 C 201.685 376, 203.254 375.399, 203.863 374.665 C 204.473 373.930, 206.890 372.728, 209.236 371.994 C 211.581 371.259, 214.871 369.385, 216.548 367.829 C 218.224 366.273, 220.077 365, 220.666 365 C 221.256 365, 224.232 362.525, 227.282 359.500 C 230.331 356.475, 233.462 354, 234.239 354 C 235.016 354, 236.695 352.889, 237.971 351.531 C 239.247 350.173, 240.681 349.303, 241.158 349.598 C 241.636 349.893, 245.532 346.504, 249.816 342.067 C 254.101 337.630, 257.882 334, 258.218 334 C 260.202 334, 272 322.442, 272 320.499 C 272 316.614, 265.190 321.037, 253.979 332.203 C 249.673 336.491, 245.494 340, 244.693 340 C 243.150 340, 235 347.640, 235 349.086 C 235 349.554, 234.348 349.687, 233.552 349.381 C 232.734 349.068, 230.879 350.061, 229.292 351.663 C 227.747 353.223, 224.236 355.589, 221.491 356.919 C 218.746 358.250, 216.275 359.645, 216 360.020 C 215.725 360.395, 213.475 361.954, 211 363.485 C 208.525 365.016, 205.656 367.150, 204.625 368.227 C 203.431 369.473, 201.885 370.020, 200.373 369.731 C 198.764 369.423, 197.207 370.065, 195.554 371.719 C 194.211 373.062, 192.376 374.269, 191.476 374.401 C 190.576 374.533, 189.539 375.085, 189.170 375.627 C 188.442 376.699, 183.992 378.516, 179.980 379.380 C 178.594 379.678, 176.375 380.933, 175.049 382.169 C 173.482 383.629, 172.499 383.998, 172.241 383.222 C 171.946 382.337, 171.102 382.413, 168.971 383.515 C 167.392 384.332, 165.402 385, 164.550 385 C 163.697 385, 163 385.402, 163 385.893 C 163 387.758, 152.230 390.060, 142 390.381 C 136.339 390.559, 132 391.616, 132 392.817 C 132 393.536, 123.761 393.441, 110.707 392.574 C 105.565 392.232, 102.385 391.527, 101.360 390.503 C 100.230 389.373, 98.354 389.053, 94.475 389.328 C 91.542 389.536, 88.548 389.329, 87.821 388.868 C 86.880 388.272, 87.138 388.026, 88.719 388.015 C 90.277 388.005, 90.766 387.553, 90.362 386.500 C 90.045 385.675, 88.934 385, 87.893 385 C 86.852 385, 86 384.378, 86 383.619 C 86 381.211, 80.052 376.174, 77.880 376.742 C 75.733 377.303, 73.086 374.635, 73.032 371.857 C 73.014 370.953, 72.325 369.955, 71.500 369.638 C 69.563 368.895, 69.563 366.382, 71.500 365.638 C 72.325 365.322, 73 364.400, 73 363.590 C 73 361.256, 70.817 360.530, 69.444 362.407 C 68.708 363.415, 67.938 363.708, 67.574 363.119 C 67.234 362.569, 67.898 361.241, 69.051 360.168 L 71.145 358.216 68.339 355.614 L 65.533 353.012 68.325 350.256 L 71.117 347.500 72.969 349.750 C 74.951 352.158, 78 352.787, 78 350.788 C 78 350.121, 76.116 347.656, 73.812 345.309 C 71.509 342.962, 69.996 340.695, 70.449 340.271 C 70.903 339.847, 71.475 340.063, 71.720 340.750 C 72.359 342.538, 76 342.299, 76 340.469 C 76 339.626, 75.325 338.678, 74.500 338.362 C 72 337.402, 72.818 336, 75.878 336 C 77.460 336, 79.315 335.325, 80 334.500 C 81.381 332.836, 88 332.422, 88 334 C 88 334.550, 88.500 335, 89.111 335 C 89.851 335, 89.991 333.765, 89.530 331.310 C 88.888 327.885, 88.963 327.724, 90.582 329.060 C 91.924 330.169, 92.422 330.212, 92.746 329.250 C 92.977 328.562, 93.804 328, 94.583 328 C 95.363 328, 96 327.550, 96 327 C 96 326.450, 96.675 326, 97.500 326 C 98.325 326, 99 326.477, 99 327.059 C 99 327.641, 99.495 327.812, 100.101 327.438 C 100.827 326.989, 100.482 326.038, 99.090 324.645 C 97.273 322.828, 96.691 322.712, 94.926 323.814 C 92.422 325.378, 89.359 324.540, 87.949 321.904 C 86.794 319.746, 84.541 320.362, 85.400 322.601 C 85.805 323.655, 84.958 324, 81.969 324 C 79.786 324, 78 323.550, 78 323 C 78 322.450, 77.325 322, 76.500 322 C 75.675 322, 75 322.450, 75 323 C 75 323.550, 74.277 324, 73.393 324 C 72.375 324, 71.997 323.450, 72.362 322.500 C 72.853 321.220, 71.252 321, 61.469 321 L 50 321 50 309 C 50 301.667, 50.389 297, 51 297 C 51.550 297, 52 295.705, 52 294.122 C 52 292.540, 52.696 290.667, 53.547 289.961 C 54.783 288.935, 54.834 288.511, 53.797 287.854 C 52.798 287.220, 52.787 287.027, 53.750 287.015 C 54.568 287.005, 55 285.397, 55 282.360 C 55 276.991, 56.980 274.852, 61.174 275.687 C 62.789 276.009, 64.759 275.582, 66.147 274.610 C 67.411 273.724, 70.322 273, 72.616 273 C 75.662 273, 76.969 272.528, 77.464 271.250 C 78.111 269.583, 78.204 269.583, 79.432 271.250 C 80.141 272.212, 81.372 273, 82.169 273 C 82.966 273, 84.491 273.661, 85.559 274.468 C 88.015 276.326, 91.783 276.339, 95 274.500 C 96.375 273.714, 98.715 273.055, 100.200 273.035 C 101.685 273.016, 103.294 272.297, 103.775 271.437 C 104.569 270.019, 104.771 270.019, 105.948 271.437 C 107.757 273.617, 113.596 273.489, 114.464 271.250 C 115.111 269.583, 115.204 269.583, 116.432 271.250 C 118.029 273.419, 119.597 273.493, 120.387 271.435 C 120.868 270.181, 122.455 269.912, 128.347 270.084 C 132.395 270.202, 136.240 269.970, 136.892 269.567 C 137.543 269.165, 142.446 268.587, 147.788 268.284 C 153.130 267.981, 158.082 267.272, 158.793 266.709 C 159.504 266.145, 159.954 264.293, 159.793 262.592 C 159.427 258.728, 161.873 258.355, 163.681 262 C 164.721 264.097, 165.812 264.582, 170.445 265.011 C 174.360 265.373, 176.111 265.154, 176.453 264.261 C 176.720 263.567, 178.037 263, 179.381 263 C 181.446 263, 181.927 262.390, 182.490 259.057 C 182.997 256.056, 184.563 253.681, 189.051 249.110 C 193.443 244.635, 195.237 241.945, 196.091 238.552 C 196.722 236.049, 197.567 234, 197.969 234 C 198.372 234, 200.146 231.676, 201.911 228.836 C 204.975 223.907, 206.546 218.991, 207.690 210.750 C 208.008 208.458, 208.752 207, 209.605 207 C 210.394 207, 211 206.001, 211 204.699 C 211 201.199, 213.292 197.017, 215.215 197.008 C 216.158 197.004, 217.467 195.997, 218.123 194.771 C 219.729 191.769, 221.201 190.389, 223.607 189.625 C 225.465 189.035, 229 182.846, 229 180.183 C 229 179.553, 227.988 178.818, 226.750 178.550 C 224.881 178.144, 206.036 177.232, 195.750 177.049 C 189.291 176.934, 194.589 170, 201.135 170 C 204.262 170, 205.836 169.390, 207.588 167.500 C 209.457 165.483, 210.860 165, 214.845 165 C 218.226 165, 219.961 164.545, 220.339 163.558 C 220.936 162.003, 222.070 161.789, 229 161.920 C 238.514 162.099, 246.120 160.882, 247.808 158.911 C 248.708 157.860, 250.447 157, 251.673 157 C 252.898 157, 254.343 156.213, 254.883 155.250 C 255.819 153.583, 255.898 153.583, 256.540 155.250 C 257.364 157.390, 262.542 157.635, 263.334 155.572 C 263.635 154.787, 265.111 153.999, 266.614 153.822 C 269.866 153.439, 271.136 151, 268.083 151 C 265.693 151, 265.382 149.758, 267.360 148.116 C 268.108 147.495, 268.522 145.950, 268.280 144.683 C 267.811 142.228, 270.358 139.152, 271.427 140.882 C 271.760 141.421, 271.575 142.144, 271.016 142.490 C 269.564 143.388, 269.759 146, 271.278 146 C 273.112 146, 276 142.324, 276 139.989 C 276 138.870, 276.670 138, 277.531 138 C 278.374 138, 279.321 137.328, 279.636 136.506 C 279.952 135.684, 280.599 135.252, 281.075 135.547 C 281.552 135.841, 282.215 134.826, 282.548 133.291 C 283.558 128.650, 285.237 126, 287.169 126 C 288.176 126, 288.887 126.536, 288.750 127.191 C 288.612 127.845, 289.339 128.563, 290.365 128.786 C 291.605 129.055, 292.067 128.740, 291.743 127.846 C 291.475 127.105, 292.362 125.016, 293.714 123.203 C 295.067 121.390, 296.291 118.419, 296.436 116.602 C 296.748 112.661, 297.643 111, 299.454 111 C 300.711 111, 301.974 105.722, 302.014 100.300 C 302.036 97.334, 303.638 96.508, 304.319 99.112 C 305.160 102.329, 306.809 100.453, 307.564 95.421 C 308.148 91.529, 307.919 90.543, 305.948 88.444 C 303.226 85.547, 302.437 85.418, 301.553 87.724 C 301.145 88.786, 301.526 89.911, 302.546 90.657 C 303.456 91.322, 303.890 92.369, 303.511 92.982 C 302.383 94.807, 300 92.126, 300 89.033 C 300 85.638, 303.417 82.039, 304.345 84.457 C 304.671 85.306, 305.626 86, 306.469 86 C 308.299 86, 308.537 82.366, 306.750 81.703 C 305.811 81.355, 305.891 80.827, 307.075 79.581 C 308.535 78.043, 308.846 78.119, 311.356 80.629 C 313.500 82.772, 314.317 83.079, 315.282 82.101 C 316.241 81.128, 316.096 80.567, 314.597 79.460 C 312.881 78.194, 312.857 77.992, 314.347 77.421 C 315.256 77.072, 316 76.159, 316 75.393 C 316 73.785, 313.422 73.508, 312.490 75.016 C 311.322 76.906, 309.953 74.956, 311.032 72.939 C 312.255 70.656, 317 70.259, 317 72.441 C 317 74.745, 318.976 75.332, 320.892 73.598 C 321.863 72.719, 323.522 72.030, 324.579 72.068 C 326.292 72.128, 326.257 72.253, 324.250 73.220 C 321.631 74.484, 321.309 76.521, 323.590 77.396 C 325.725 78.215, 327 77.297, 327 74.941 C 327 72.272, 328.449 72.509, 330.408 75.500 C 331.752 77.550, 332.851 78, 336.523 78 C 340.191 78, 341 78.330, 341 79.826 C 341 80.830, 342.125 82.708, 343.500 84 C 344.875 85.292, 346.008 87.058, 346.017 87.924 C 346.027 88.791, 347.152 90.560, 348.517 91.855 C 349.883 93.150, 351 95.025, 351 96.022 C 351 97.018, 351.337 97.983, 351.750 98.167 C 352.163 98.350, 353.396 100.300, 354.490 102.500 C 355.585 104.700, 356.798 106.737, 357.187 107.026 C 359.089 108.443, 360.639 132.938, 359.018 135.966 C 357.625 138.569, 358.698 140.291, 360.125 137.742 C 360.661 136.784, 362.135 136, 363.401 136 C 365.670 136, 365.713 135.784, 366.397 121.105 C 367.052 107.038, 366.708 101.812, 364.974 99.500 C 364.562 98.950, 363.414 95.800, 362.422 92.500 C 361.431 89.200, 360.052 85.813, 359.358 84.974 C 358.663 84.135, 357.785 81.505, 357.405 79.130 C 357.025 76.755, 355.942 74.067, 354.998 73.156 C 354.054 72.245, 353.010 70.375, 352.678 69 C 351.078 62.378, 337.568 49.771, 327.613 45.612 C 325.626 44.781, 324 43.691, 324 43.188 C 324 42.685, 326.250 40.169, 329 37.597 C 333.531 33.358, 334 32.508, 334 28.527 C 334 23.688, 333.515 23.321, 326.500 22.868 C 324.300 22.726, 321.232 23.234, 319.682 23.996 C 316.989 25.322, 316.894 25.605, 317.534 30.441 C 317.902 33.224, 318.608 35.928, 319.102 36.450 C 322.246 39.775, 318.072 40.845, 313 38.014 C 310.817 36.795, 287.013 34.761, 276.500 34.894 C 268.710 34.993, 262.967 35.782, 261.565 36.946 C 260.719 37.649, 258.978 37.960, 257.697 37.639 C 256.310 37.291, 254.429 37.711, 253.047 38.680 C 249.040 41.486, 242 41.372, 242 38.500 C 242 36.741, 245.733 35.543, 247.298 36.800 C 247.959 37.331, 249.963 37.542, 251.750 37.269 C 254.370 36.869, 255 36.310, 255 34.387 L 255 32 267.378 32 C 277.526 32, 279.995 31.711, 281.089 30.393 C 282.099 29.175, 283.621 28.901, 287.372 29.262 C 291.765 29.684, 292.581 29.443, 294.629 27.119 C 297.537 23.819, 297.566 22.510, 294.777 20.557 C 291.691 18.395, 275.356 18.413, 272.500 20.582 M 386.024 60.750 C 386.115 63.537, 388.455 70.943, 390.999 76.497 C 392.649 80.101, 394 83.922, 394 84.988 C 394 86.053, 394.878 89.304, 395.950 92.212 C 398.583 99.351, 399.861 110.013, 398.842 116.324 C 398.382 119.171, 398.055 126.675, 398.115 133 C 398.374 160.178, 398.073 164.216, 395.538 167.539 C 394.056 169.482, 392.927 172.740, 392.471 176.385 C 392.041 179.828, 391.038 182.829, 389.984 183.827 C 388.667 185.074, 388.119 187.502, 387.834 193.359 C 387.516 199.864, 387.088 201.511, 385.345 202.922 C 383.942 204.058, 383.001 206.358, 382.526 209.814 C 382.133 212.666, 381.456 215, 381.020 215 C 379.708 215, 377 221.593, 377 224.786 C 377 226.863, 376.242 228.266, 374.509 229.402 C 372.796 230.524, 371.812 232.322, 371.359 235.158 C 370.967 237.606, 368.729 242.228, 365.850 246.533 C 363.182 250.521, 361 254.802, 361 256.047 C 361 257.293, 359.875 259.786, 358.500 261.589 C 357.125 263.392, 356 265.409, 356 266.073 C 356 266.737, 355.280 267.806, 354.401 268.449 C 351.565 270.523, 349.779 285.317, 352.250 286.266 C 353.747 286.840, 353.351 297, 351.832 297 C 350.110 297, 348.460 299.391, 347.174 303.750 C 346.073 307.479, 345.566 308, 343.032 308 C 340.981 308, 339.430 307.087, 337.678 304.847 L 335.210 301.695 328.015 308.847 C 324.058 312.781, 320.505 316, 320.120 316 C 319.735 316, 318.160 318.138, 316.619 320.750 C 315.078 323.363, 311.834 326.977, 309.409 328.781 C 306.984 330.586, 304.386 333.511, 303.634 335.281 C 302.882 337.052, 300.295 340.383, 297.884 342.685 C 295.473 344.986, 289.033 351.174, 283.574 356.435 C 278.114 361.696, 272.856 366, 271.888 366 C 270.899 366, 269.196 367.643, 268.001 369.750 C 266.831 371.813, 264.282 374.625, 262.336 376 C 260.390 377.375, 258.005 379.226, 257.036 380.113 C 256.067 381, 253.649 382.031, 251.662 382.404 C 248.991 382.905, 246.961 384.373, 243.869 388.041 C 241.569 390.768, 239.158 393, 238.512 393 C 237.866 393, 236.747 394.103, 236.026 395.452 C 235.302 396.804, 233.432 398.185, 231.857 398.531 C 230.286 398.877, 229 399.538, 229 400.002 C 229 400.466, 227.432 401.362, 225.516 401.995 C 223.599 402.627, 221.172 404.237, 220.122 405.572 C 218.905 407.119, 217.176 408.006, 215.356 408.016 C 213.626 408.026, 211.165 409.208, 209.114 411.016 C 207.252 412.657, 205.223 414, 204.605 414 C 203.987 414, 202.954 414.844, 202.310 415.876 C 201.665 416.907, 199.445 418.069, 197.374 418.458 C 195.304 418.846, 191.463 420.252, 188.838 421.582 C 185.901 423.070, 182.343 424, 179.583 424 C 177.089 424, 174.744 424.555, 174.300 425.250 C 173.237 426.911, 169.419 429, 167.447 429 C 166.578 429, 164.434 430.067, 162.683 431.371 C 160.932 432.676, 157.523 433.991, 155.106 434.295 C 152.689 434.600, 150.408 435.340, 150.036 435.941 C 149.665 436.542, 146.467 437.457, 142.930 437.973 C 139.394 438.490, 132 439.670, 126.500 440.595 C 114.287 442.649, 107.750 442.738, 104.295 440.897 C 102.241 439.803, 101.582 439.771, 101.253 440.750 C 100.728 442.315, 94.795 442.395, 93.258 440.858 C 91.995 439.595, 82.042 439.238, 80.179 440.389 C 77.823 441.845, 79.100 443.908, 83.750 446.158 C 86.363 447.422, 90.179 449.479, 92.230 450.728 C 94.282 451.978, 96.814 453, 97.858 453 C 98.901 453, 100.311 453.670, 100.991 454.489 C 101.671 455.308, 102.607 455.743, 103.073 455.455 C 104.041 454.857, 108 457.095, 108 458.241 C 108 458.658, 106.044 459, 103.653 459 C 100.670 459, 98.552 458.342, 96.903 456.904 C 95.581 455.750, 91.239 453.256, 87.253 451.359 C 82.094 448.905, 79.560 447.050, 78.460 444.922 C 77.609 443.278, 76.371 442.028, 75.707 442.145 C 74.286 442.395, 68.897 439.434, 64.980 436.250 C 63.457 435.013, 61.826 433.998, 61.356 433.996 C 60.885 433.993, 58.475 432.645, 56 431 C 51.357 427.914, 47.520 427.048, 48.245 429.250 C 48.471 429.938, 49.578 430.636, 50.704 430.803 C 51.830 430.970, 53.786 432.208, 55.050 433.553 C 56.314 434.899, 58.118 436, 59.059 436 C 60 436, 61.507 437.125, 62.408 438.500 C 63.309 439.875, 64.769 441, 65.652 441 C 66.535 441, 68.951 442.463, 71.020 444.250 C 78.535 450.742, 87.707 457, 89.708 457 C 90.834 457, 92.315 457.675, 93 458.500 C 93.685 459.325, 94.810 460, 95.500 460 C 96.190 460, 97.332 460.695, 98.037 461.544 C 98.887 462.569, 100.221 462.891, 102 462.500 C 103.779 462.109, 105.113 462.431, 105.963 463.456 C 106.668 464.305, 108.717 465, 110.515 465 C 112.500 465, 114.012 465.590, 114.362 466.500 C 114.763 467.547, 116.382 467.996, 119.719 467.986 C 125.902 467.969, 129.646 467.017, 127.863 465.916 C 125.442 464.419, 127.722 463.906, 132.627 464.844 C 137.382 465.754, 137.409 465.779, 133.750 465.888 C 131.203 465.964, 130 466.462, 130 467.441 C 130 469.712, 132.029 470.416, 138.173 470.278 C 142.022 470.192, 144.265 470.614, 145.062 471.575 C 146.764 473.626, 158.847 473.563, 159.638 471.500 C 160.068 470.381, 161.855 470, 166.678 470 C 170.847 470, 173.634 469.509, 174.525 468.618 C 175.471 467.672, 177.338 467.396, 180.436 467.746 C 184.013 468.149, 185.096 467.914, 185.589 466.628 C 186.075 465.363, 187.615 465, 192.500 465 C 197.387 465, 198.925 464.637, 199.411 463.371 C 199.891 462.119, 200.928 461.861, 203.880 462.257 C 207.279 462.713, 208.080 462.384, 210.816 459.402 C 213.429 456.554, 214.381 456.126, 216.955 456.641 C 219.584 457.167, 220 456.960, 220 455.125 C 220 453.956, 219.438 452.982, 218.750 452.960 C 218.063 452.938, 218.792 452.220, 220.372 451.364 C 222.818 450.039, 223.910 449.995, 227.741 451.067 C 231.716 452.180, 232.346 452.133, 233.169 450.663 C 233.681 449.748, 234.929 449, 235.943 449 C 236.957 449, 238.045 448.325, 238.362 447.500 C 238.678 446.675, 239.773 446, 240.794 446 C 241.816 446, 243.708 444.875, 245 443.500 C 246.292 442.125, 248.184 441, 249.206 441 C 250.227 441, 251.322 440.325, 251.638 439.500 C 251.955 438.675, 253.114 438, 254.213 438 C 255.313 438, 257.097 436.875, 258.179 435.500 C 259.260 434.125, 260.957 433, 261.950 433 C 262.943 433, 264.332 432.305, 265.038 431.454 C 265.743 430.604, 266.890 430.128, 267.587 430.395 C 268.284 430.662, 269.392 430.233, 270.049 429.441 C 270.707 428.648, 271.977 427.981, 272.872 427.958 C 273.768 427.934, 275.604 426.584, 276.953 424.958 C 278.302 423.331, 280.143 422, 281.045 422 C 281.946 422, 285.492 419.075, 288.925 415.500 C 292.357 411.925, 296.029 409, 297.083 409 C 298.137 409, 299 408.550, 299 408 C 299 407.450, 300.012 407.008, 301.250 407.018 C 302.760 407.029, 305.473 404.871, 309.500 400.452 C 312.800 396.831, 316.400 393.743, 317.500 393.590 C 318.600 393.437, 319.643 392.579, 319.818 391.684 C 319.993 390.789, 323.705 386.400, 328.068 381.930 C 332.431 377.461, 336 373.252, 336 372.576 C 336 371.037, 340.219 367, 341.828 367 C 344.018 367, 347.434 364.575, 353.750 358.535 C 357.188 355.247, 360 351.805, 360 350.886 C 360 349.966, 360.722 348.937, 361.604 348.599 C 362.486 348.260, 362.972 347.370, 362.685 346.620 C 362.392 345.857, 364.069 343.386, 366.500 341 C 368.886 338.658, 370.643 336.234, 370.405 335.613 C 370.167 334.992, 373.734 330.741, 378.333 326.166 C 384.848 319.685, 386.599 317.355, 386.266 315.614 C 386.024 314.344, 386.522 312.811, 387.420 312.067 C 388.289 311.345, 389 309.965, 389 309 C 389 308.035, 389.675 306.685, 390.500 306 C 391.325 305.315, 392 304.199, 392 303.520 C 392 302.841, 395.487 298.741, 399.750 294.409 L 407.499 286.532 407.177 281.516 C 406.888 277.016, 407.170 276.198, 409.927 273.563 C 411.617 271.948, 413 269.987, 413 269.207 C 413 268.426, 414.125 266.903, 415.500 265.821 C 417.251 264.444, 418 262.881, 418 260.602 C 418 258.425, 418.827 256.572, 420.500 255 C 421.875 253.708, 423 251.816, 423 250.794 C 423 249.773, 423.675 248.678, 424.500 248.362 C 425.656 247.918, 426 245.998, 426 240 C 426 233.861, 426.331 232.087, 427.563 231.614 C 428.436 231.279, 428.810 230.502, 428.411 229.855 C 428.013 229.213, 428.537 228.081, 429.586 227.314 C 430.626 226.553, 431.482 225.180, 431.489 224.263 C 431.495 223.316, 432.580 222.337, 434 221.997 C 436.470 221.405, 436.501 221.269, 436.544 210.705 C 436.573 203.748, 437.010 199.590, 437.794 198.806 C 438.457 198.143, 439 196.395, 439 194.922 C 439 193.450, 439.675 191.685, 440.500 191 C 441.711 189.995, 442 186.867, 442 174.738 C 442 161.620, 442.221 159.548, 443.750 158.360 C 445.417 157.065, 445.417 156.935, 443.750 155.640 C 442.337 154.542, 442 152.706, 442 146.108 C 442 139.768, 441.664 137.808, 440.500 137.362 C 439.324 136.910, 439 134.885, 439 127.976 C 439 121.819, 438.624 119.040, 437.750 118.747 C 437.063 118.516, 436.500 116.802, 436.500 114.937 C 436.500 112.506, 436.005 111.448, 434.750 111.200 C 433.535 110.959, 433 111.487, 433 112.927 C 433 114.067, 432.550 115, 432 115 C 431.450 115, 431 114.151, 431 113.114 C 431 112.077, 430.342 109.960, 429.538 108.410 C 427.803 105.066, 428.263 104.120, 430.524 106.381 C 432.827 108.684, 434.668 108.396, 432.557 106.063 C 431.593 104.998, 431.068 103.699, 431.391 103.176 C 431.714 102.654, 431.308 101.671, 430.489 100.991 C 429.670 100.311, 429 98.896, 429 97.846 C 429 96.796, 428.325 95.678, 427.500 95.362 C 426.573 95.006, 426 93.485, 426 91.379 C 426 89.506, 425.438 86.966, 424.750 85.736 C 422.525 81.756, 417.655 77, 415.804 77 C 413.294 77, 413.552 78.422, 416.331 79.909 C 419.265 81.480, 422 86.032, 422 89.345 C 422 90.740, 422.450 92.160, 423 92.500 C 423.550 92.840, 424 94.441, 424 96.059 C 424 98.007, 424.507 99, 425.500 99 C 426.443 99, 427 99.951, 427 101.559 C 427 104.891, 425.413 103.861, 423.336 99.182 C 421.738 95.582, 421.463 94.718, 421.152 92.327 C 421.069 91.681, 419.819 89.750, 418.376 88.034 C 416.932 86.319, 415.983 84.684, 416.266 84.400 C 417.008 83.659, 403.818 70.994, 402.897 71.563 C 402.475 71.825, 399.343 69.330, 395.939 66.019 C 390.570 60.799, 385.946 58.341, 386.024 60.750 M 273.500 62.851 C 271.300 63.208, 268.150 64.227, 266.500 65.116 C 264.850 66.005, 261.772 67.046, 259.661 67.428 C 254.428 68.377, 251 70.052, 251 71.661 C 251 72.565, 249.649 73, 246.836 73 C 242.629 73, 235 75.702, 235 77.192 C 235 77.637, 232.777 78, 230.059 78 C 227.341 78, 224.808 78.501, 224.430 79.113 C 224.052 79.726, 221.662 81.144, 219.121 82.264 C 216.579 83.385, 213.912 85.134, 213.193 86.151 C 212.475 87.168, 211.012 88, 209.943 88 C 208.874 88, 208 88.586, 208 89.302 C 208 90.019, 205.713 91.427, 202.919 92.432 C 200.124 93.437, 197.617 94.835, 197.347 95.538 C 197.077 96.241, 195.426 97.408, 193.678 98.131 C 191.930 98.854, 189.488 100.536, 188.250 101.869 C 187.012 103.201, 186 103.986, 186 103.611 C 186 103.236, 185.100 103.411, 184 104 C 182.900 104.589, 182 105.730, 182 106.535 C 182 107.341, 181.135 108, 180.077 108 C 178.986 108, 176.146 110.351, 173.506 113.441 C 170.949 116.434, 168.327 118.682, 167.679 118.436 C 167.030 118.190, 165.193 119.117, 163.594 120.495 C 161.996 121.873, 160.408 123, 160.065 123 C 158.687 123, 147.828 134.443, 148.874 134.791 C 151.274 135.591, 149.848 136.920, 147.166 136.383 C 144.846 135.919, 143.848 136.392, 141.659 138.993 C 140.189 140.740, 139.283 142.650, 139.646 143.236 C 140.009 143.823, 139.600 144.819, 138.739 145.449 C 137.877 146.079, 137.021 147.923, 136.836 149.547 C 136.616 151.485, 136.006 152.393, 135.064 152.188 C 134.275 152.017, 132.544 152.149, 131.217 152.482 C 129.254 152.974, 128.918 153.537, 129.412 155.504 C 129.874 157.347, 129.482 158.217, 127.759 159.172 C 126.517 159.861, 125.162 160.329, 124.750 160.212 C 124.338 160.096, 124 160.675, 124 161.500 C 124 162.325, 123.325 163, 122.500 163 C 121.675 163, 121.112 163.563, 121.250 164.250 C 121.396 164.979, 120.714 165.365, 119.614 165.175 C 118.327 164.953, 117.901 165.299, 118.272 166.266 C 119.048 168.289, 117.532 170.295, 115.090 170.475 C 112.503 170.666, 107 175.789, 107 178.007 C 107 178.905, 105.857 180.634, 104.459 181.849 C 103.061 183.064, 102.215 184.538, 102.577 185.125 C 102.940 185.711, 101.833 187.473, 100.118 189.039 C 98.403 190.606, 97 192.813, 97 193.944 C 97 195.075, 96.536 196, 95.969 196 C 95.401 196, 94.639 196.787, 94.275 197.750 C 93.491 199.818, 92.731 200.580, 87.708 204.333 C 84.360 206.834, 83.556 207.041, 80.843 206.095 C 79.153 205.506, 77.259 205.344, 76.635 205.736 C 76.011 206.127, 75.050 206.503, 74.500 206.571 C 73.950 206.640, 72.938 206.764, 72.250 206.848 C 71.563 206.931, 71 207.675, 71 208.500 C 71 209.325, 70.325 210, 69.500 210 C 68.675 210, 67.998 210.563, 67.995 211.250 C 67.993 211.938, 66.367 214.268, 64.383 216.428 C 61.863 219.172, 60.314 222.187, 59.246 226.428 C 58.405 229.768, 56.881 233.573, 55.858 234.885 C 54.836 236.197, 54 237.797, 54 238.441 C 54 239.085, 52.875 241.136, 51.500 243 C 50.125 244.864, 49 246.864, 49 247.444 C 49 248.025, 50.645 249.812, 52.655 251.416 L 56.310 254.332 60.405 252.208 C 62.657 251.040, 65.625 249.813, 67 249.482 C 68.375 249.151, 70.176 248.345, 71.002 247.690 C 73.400 245.789, 76.372 239.411, 75.688 237.631 C 74.804 235.326, 71.282 235.605, 69.955 238.085 C 68.579 240.655, 62.137 243.537, 60.786 242.186 C 60.184 241.584, 60.783 239.159, 62.417 235.587 C 63.838 232.482, 65 229.552, 65 229.077 C 65 228.602, 65.675 227.955, 66.500 227.638 C 67.373 227.303, 68 225.806, 68 224.054 C 68 220.120, 71.741 217.498, 76.109 218.372 C 80.905 219.331, 84 218.181, 84 215.439 C 84 211.554, 86.121 208, 88.438 208 C 90.318 208, 90.539 208.533, 90.408 212.750 C 90.216 218.942, 90.311 218.686, 88 219.290 C 85.323 219.990, 85.297 225.297, 87.958 227.958 C 89.567 229.567, 90.789 229.812, 94.823 229.335 C 97.641 229.001, 99.990 229.174, 100.340 229.742 C 100.676 230.285, 100.388 232.674, 99.701 235.050 C 98.690 238.539, 97.878 239.523, 95.475 240.169 C 91.617 241.206, 89.715 240.549, 88.491 237.759 C 87.742 236.053, 86.671 235.500, 84.109 235.500 C 79.241 235.500, 78.403 237.433, 80.050 244.859 L 81.413 251 87.661 251 C 92.863 251, 94.294 250.613, 96.205 248.687 C 102.479 242.365, 104.742 239.016, 105.362 235.135 C 105.932 231.573, 106.369 231, 108.512 231 C 109.880 231, 110.988 230.438, 110.973 229.750 C 110.932 227.881, 104.207 221, 102.421 221 C 99.713 221, 97 218.998, 97 217 C 97 214.411, 99.931 213, 105.309 213 C 112.605 213, 115.551 212.030, 117.313 209.047 C 118.212 207.526, 118.689 206.022, 118.374 205.707 C 118.058 205.391, 118.126 204.605, 118.525 203.960 C 119.070 203.077, 119.427 203.072, 119.963 203.940 C 121.168 205.890, 121.066 213.216, 119.813 214.725 C 118.887 215.841, 118.942 216.351, 120.064 217.060 C 122.397 218.534, 123.397 217.630, 125.331 212.296 C 126.569 208.883, 127.987 206.871, 129.710 206.086 C 131.112 205.448, 132.490 205.156, 132.772 205.439 C 133.055 205.721, 133.286 208.408, 133.286 211.410 C 133.286 216.148, 132.888 217.266, 130.269 219.884 L 127.253 222.901 127.624 234.662 C 128.080 249.166, 128.876 250.505, 135.076 247.196 C 139.732 244.710, 142.171 244.465, 144.952 246.202 C 146.478 247.155, 147.421 247.112, 149.504 245.998 C 151.923 244.703, 152.082 244.230, 151.503 240.025 C 150.803 234.930, 151.910 231.090, 154.960 228.040 C 156.469 226.531, 157 224.699, 157 221 C 157 215.267, 156.029 214.837, 149.372 217.618 C 147.242 218.508, 145.275 219.295, 145 219.368 C 144.725 219.441, 144.630 221.525, 144.788 224 C 144.946 226.475, 144.551 230.412, 143.908 232.750 C 142.836 236.652, 142.471 237, 139.450 237 L 136.159 237 135.475 230.610 C 134.787 224.188, 135.845 218.942, 138.717 214.527 C 139.423 213.443, 140 211.557, 140 210.337 C 140 209.116, 140.563 207.761, 141.250 207.325 C 143.103 206.150, 153.267 206.993, 155 208.465 C 158.014 211.025, 163 207.255, 163 202.416 C 163 199.261, 164.660 196.613, 167.162 195.779 C 169.592 194.969, 167.107 192, 164 192 C 162.200 192, 160.700 191.382, 160.362 190.500 C 159.552 188.391, 146.468 188.339, 145.661 190.442 C 145.156 191.756, 140.980 192.292, 141.015 191.037 C 141.057 189.589, 142.894 187.816, 143.783 188.366 C 144.337 188.708, 145.059 188.288, 145.388 187.431 C 145.717 186.574, 146.439 186.153, 146.993 186.496 C 147.547 186.838, 148 186.228, 148 185.141 C 148 181.325, 149.136 180, 152.407 180 C 154.163 180, 156.101 180.501, 156.713 181.113 C 158.054 182.454, 160 181.450, 160 179.416 C 160 178.203, 157.931 177.970, 148.001 178.069 C 141.402 178.134, 135.750 178.595, 135.442 179.094 C 134.651 180.374, 128.256 180.224, 127.442 178.906 C 127.070 178.304, 125.693 178.017, 124.383 178.267 C 120.894 178.934, 121.225 175.094, 124.972 171.417 C 126.607 169.812, 127.957 167.757, 127.972 166.849 C 127.988 165.941, 131.488 161.949, 135.750 157.978 C 140.012 154.007, 143.746 149.800, 144.048 148.629 C 144.349 147.458, 145.345 146.495, 146.261 146.488 C 147.178 146.482, 149.650 144.795, 151.756 142.738 C 153.861 140.682, 155.854 139, 156.184 139 C 156.513 139, 157.066 140.125, 157.411 141.500 C 158.528 145.951, 163.839 144.132, 166.900 138.250 C 167.544 137.012, 168.730 136, 169.535 136 C 171.458 136, 171.430 133.102, 169.500 132.362 C 168.675 132.045, 168 131.384, 168 130.893 C 168 129.462, 170.641 129.863, 172 131.500 C 173.922 133.816, 175.834 133.280, 176.184 130.327 C 176.576 127.013, 178.938 126.046, 179.683 128.895 C 180.450 131.831, 182.239 131.520, 184.842 128 C 186.062 126.350, 187.666 125, 188.407 125 C 189.149 125, 190.339 124.297, 191.052 123.437 C 192.229 122.019, 192.431 122.019, 193.225 123.437 C 194.519 125.750, 197 125.350, 197 122.829 C 197 118.581, 199.684 117.002, 205.879 117.604 C 210.923 118.095, 212.196 117.789, 218.279 114.628 C 222.008 112.690, 228.462 110.171, 232.623 109.030 C 236.783 107.889, 241.472 106.290, 243.044 105.478 C 244.615 104.665, 247.295 104, 249 104 C 250.705 104, 253.314 103.385, 254.800 102.634 C 256.285 101.882, 259.230 100.954, 261.344 100.571 C 266.818 99.579, 275.332 94.713, 280.804 89.449 C 283.387 86.964, 286.470 84.684, 287.655 84.381 C 289.155 83.998, 290.009 82.768, 290.466 80.330 C 291.422 75.232, 290.077 66.379, 288.069 64.562 C 286.056 62.741, 279.167 61.932, 273.500 62.851 M 141 84.500 C 140.465 85.907, 139.251 87, 138.223 87 C 137.219 87, 134.467 89.025, 132.109 91.500 C 129.750 93.975, 127.298 96.017, 126.660 96.038 C 125.725 96.069, 120.413 102.545, 119.209 105.123 C 118.451 106.746, 123.048 106.605, 124.537 104.959 C 125.445 103.956, 126.767 103.357, 127.475 103.629 C 128.245 103.924, 129.190 102.894, 129.829 101.061 C 130.416 99.378, 131.398 98, 132.012 98 C 133.663 98, 142.999 89.707, 143 88.240 C 143 87.547, 143.877 86.230, 144.949 85.312 C 147.192 83.391, 146.758 82, 143.916 82 C 142.740 82, 141.569 83.004, 141 84.500 M 337.164 154.326 C 335.974 155.592, 335 157.117, 335 157.713 C 335 160.817, 326.057 175.052, 321.250 179.601 C 320.012 180.771, 319 182.687, 319 183.857 C 319 186.049, 316.516 189.473, 311.804 193.774 C 310.321 195.127, 308.822 197.532, 308.474 199.117 C 308.126 200.703, 307.524 202, 307.136 202 C 306.748 202, 305.577 203.463, 304.533 205.250 C 303.489 207.037, 301.817 209.088, 300.817 209.807 C 297.793 211.981, 299.116 217, 302.714 217 C 304.558 217, 310.973 212.715, 310.988 211.473 C 310.994 210.908, 312.350 208.968, 314 207.161 C 315.650 205.355, 317 203.591, 317 203.242 C 317 202.291, 322.172 194.853, 324.818 192 C 326.092 190.625, 328.067 187.709, 329.205 185.520 C 330.344 183.331, 332.518 179.956, 334.036 178.020 C 335.555 176.084, 337.098 173.488, 337.466 172.250 C 337.834 171.012, 338.452 170, 338.840 170 C 339.228 170, 340.384 168.442, 341.410 166.538 C 343.458 162.733, 343.174 157.515, 340.728 154.023 C 339.339 152.038, 339.310 152.041, 337.164 154.326 M 305.449 162.765 C 304.870 163.169, 303.596 165.637, 302.616 168.250 C 301.636 170.863, 300.464 173, 300.011 173 C 299.558 173, 298.878 175.250, 298.500 178 C 298.059 181.205, 297.325 183, 296.456 183 C 294.273 183, 293.238 185.936, 293.768 190.630 C 294.156 194.075, 293.941 195, 292.752 195 C 290.800 195, 288.640 197.609, 289.475 198.959 C 289.859 199.580, 292.130 198.277, 295.060 195.753 C 299.093 192.281, 299.999 190.904, 300 188.250 C 300 186.156, 300.490 185, 301.378 185 C 303.539 185, 305.132 182.434, 305.448 178.442 C 305.608 176.428, 306.277 174.447, 306.935 174.040 C 308.698 172.951, 311 168.109, 311 165.493 C 311 162.635, 307.850 161.087, 305.449 162.765 M 181.046 167.730 C 180.246 168.045, 178.698 169.135, 177.607 170.151 C 176.516 171.168, 174.583 172, 173.311 172 C 172.040 172, 171 172.450, 171 173 C 171 173.550, 171.700 174, 172.555 174 C 173.410 174, 176.079 174.897, 178.486 175.993 C 181.630 177.426, 183.514 177.739, 185.181 177.108 L 187.500 176.229 184.750 174.954 C 180.970 173.201, 181.304 172.135, 185.862 171.406 C 191.137 170.563, 193.004 169.331, 191 168.015 C 189.392 166.960, 183.436 166.789, 181.046 167.730 M 357.758 173.319 C 356.275 174.538, 349.581 185.204, 346.976 190.500 C 346.164 192.150, 344.522 194.293, 343.327 195.262 C 342.132 196.231, 340.849 198.481, 340.476 200.262 C 340.104 202.043, 337.983 205.379, 335.764 207.676 C 333.533 209.984, 331.965 212.465, 332.256 213.224 C 333.880 217.458, 350.161 213.218, 349.784 208.659 C 349.685 207.461, 350.365 205.134, 351.295 203.490 C 352.226 201.845, 353.881 198.475, 354.974 196 C 356.067 193.525, 357.937 190.290, 359.129 188.812 C 361.292 186.132, 362.818 179.444, 362.206 175.335 C 361.811 172.686, 359.694 171.727, 357.758 173.319 M 243.498 177.731 C 240.389 180.117, 235.944 186.493, 235.034 189.872 C 234.306 192.579, 233.301 193.950, 231.748 194.356 C 229.718 194.886, 229.656 195.085, 231.078 196.507 C 232.500 197.928, 233.099 197.861, 237.572 195.782 C 248.816 190.554, 258.873 180.822, 255.250 178.673 C 253.672 177.738, 244.453 176.999, 243.498 177.731 M 271.420 182.301 C 269.177 184.610, 266.062 187.175, 264.499 188 C 261.218 189.731, 256 194.118, 256 195.143 C 256 196.080, 249.195 202.810, 244.656 206.361 C 241.451 208.868, 241 209.756, 241 213.552 C 241 215.933, 241.454 218.163, 242.009 218.506 C 243.761 219.589, 246.779 218.015, 247.364 215.714 C 247.916 213.540, 253.283 207, 254.515 207 C 255.339 207, 258 204.326, 258 203.498 C 258 203.143, 260.210 200.666, 262.912 197.993 C 265.613 195.320, 268.111 192.226, 268.463 191.117 C 268.814 190.009, 270.092 188.804, 271.301 188.439 C 274.706 187.411, 279 182.879, 279 180.313 C 279 176.755, 276.058 177.527, 271.420 182.301 M 115.185 182.969 C 113.433 184.721, 112 186.569, 112 187.077 C 112 187.585, 111.155 188, 110.122 188 C 109.090 188, 107.685 188.675, 107 189.500 C 106.315 190.325, 104.910 191, 103.878 191 C 102.566 191, 102 191.718, 102 193.383 C 102 195.009, 101.290 195.952, 99.767 196.351 C 97.974 196.820, 97.782 197.182, 98.792 198.192 C 99.789 199.189, 100.457 199.196, 102.011 198.225 C 104.483 196.682, 110.234 196.634, 111.744 198.144 C 113.663 200.063, 119 197.293, 119 194.379 C 119 192.667, 119.561 192, 121 192 C 123.070 192, 123.760 189.587, 122 188.500 C 121.450 188.160, 121 186.870, 121 185.632 C 121 184.395, 120.408 182.573, 119.685 181.583 C 118.451 179.897, 118.171 179.983, 115.185 182.969 M 192.809 184.754 C 192.521 186.247, 191.515 186.452, 185.855 186.165 C 180.554 185.897, 178.965 186.169, 177.869 187.531 C 177.116 188.466, 175.262 190.404, 173.750 191.838 C 172.238 193.272, 171 194.983, 171 195.639 C 171 196.296, 170.441 197.020, 169.759 197.247 C 168.878 197.541, 168.615 199.784, 168.854 204.955 C 169.084 209.929, 168.704 213.403, 167.659 215.875 C 166.817 217.869, 165.850 221.609, 165.512 224.187 C 165.173 226.764, 163.795 230.497, 162.448 232.481 C 161.044 234.551, 160 237.531, 160 239.473 C 160 243.229, 162.469 246.418, 164.711 245.558 C 165.510 245.251, 169.003 245, 172.474 245 C 178.101 245, 179.219 244.648, 182.807 241.750 C 185.020 239.963, 187.383 237.510, 188.057 236.301 C 188.732 235.092, 190.221 233.967, 191.366 233.801 C 193.184 233.538, 193.460 232.778, 193.538 227.823 C 193.607 223.405, 194.214 221.299, 196.275 218.323 C 198.025 215.798, 199.159 212.507, 199.614 208.629 C 200.070 204.748, 201.058 201.882, 202.528 200.172 L 204.752 197.587 202.714 193.543 C 199.073 186.322, 193.465 181.346, 192.809 184.754 M 273.346 199.676 C 272.990 200.679, 271.529 202.677, 270.099 204.115 C 264.676 209.572, 257.500 218.251, 257.500 219.353 C 257.500 219.984, 259.340 220.635, 261.589 220.800 C 265.365 221.076, 265.959 220.756, 269.351 216.617 C 271.371 214.152, 273.187 210.728, 273.387 209.007 C 273.588 207.287, 274.733 204.966, 275.932 203.849 C 277.131 202.732, 277.969 201.077, 277.794 200.171 C 277.344 197.832, 274.128 197.474, 273.346 199.676 M 179.828 203.684 C 178.026 204.820, 176.774 206.854, 175.981 209.934 C 175.334 212.445, 174.546 215.175, 174.230 216 C 172.711 219.961, 171.472 228.044, 172.116 229.785 C 172.790 231.607, 177.603 233.363, 179.206 232.373 C 179.600 232.129, 180.186 230.258, 180.508 228.215 C 181.195 223.861, 184.540 216.705, 187.802 212.611 C 189.452 210.542, 190.019 208.699, 189.802 206.111 C 189.522 202.765, 189.244 202.482, 186 202.250 C 184.039 202.111, 181.325 202.741, 179.828 203.684 M 216.898 225.168 C 214.277 225.867, 212.723 227.147, 211.194 229.869 C 210.038 231.926, 208.059 234.758, 206.796 236.162 C 205.533 237.567, 202.640 240.760, 200.366 243.259 C 198.093 245.758, 195.843 248.911, 195.366 250.265 C 194.299 253.299, 189.404 258.894, 185.735 261.273 C 183.737 262.568, 183 263.871, 183 266.105 C 183 268.449, 181.803 270.368, 177.881 274.310 L 172.763 279.456 173.381 285.375 C 173.722 288.630, 174 292.127, 174 293.147 C 174 294.166, 174.498 295, 175.107 295 C 175.716 295, 175.942 294.291, 175.610 293.425 C 175.123 292.156, 175.636 291.913, 178.253 292.175 C 181.379 292.488, 181.512 292.352, 181.823 288.543 C 182.021 286.107, 182.856 284.089, 183.994 283.292 C 185.010 282.580, 186.128 280.694, 186.478 279.100 C 186.846 277.424, 187.928 275.991, 189.045 275.698 C 190.107 275.421, 191.415 274.038, 191.953 272.625 C 192.512 271.152, 194.011 269.784, 195.465 269.420 C 196.859 269.070, 198.002 268.269, 198.005 267.642 C 198.013 265.495, 203.959 260.047, 205.604 260.678 C 207.516 261.412, 215.988 252.962, 216.024 250.286 C 216.037 249.304, 217.816 247.192, 219.977 245.593 C 224.766 242.051, 225.148 241.195, 225.578 233.054 C 226.054 224.053, 224.924 223.026, 216.898 225.168 M 334.500 227.618 C 330.067 229.932, 328.025 230.284, 316.500 230.717 C 308.731 231.010, 302.695 231.706, 301.500 232.448 C 300.400 233.131, 297.475 234.023, 295 234.429 C 292.525 234.836, 289.079 235.400, 287.342 235.683 C 285.008 236.063, 283.187 235.519, 280.360 233.599 C 275.795 230.497, 274.994 230.430, 271.868 232.889 C 270.220 234.186, 266.648 235.079, 260.479 235.738 C 254.104 236.419, 249.821 237.516, 245.746 239.511 C 239.339 242.648, 239.846 241.188, 239.839 256.500 C 239.836 263.916, 239.992 264.524, 241.983 264.828 C 244.367 265.192, 248 261.702, 248 259.047 C 248 255.356, 252.647 253.665, 255 256.500 C 255.685 257.325, 256.640 258, 257.122 258 C 257.605 258, 258 257.325, 258 256.500 C 258 255.420, 259.105 255, 261.941 255 C 266.756 255, 268.280 253.252, 263.846 252.815 C 259.303 252.367, 258.872 250, 263.333 250 C 265.258 250, 266.993 249.522, 267.187 248.938 C 267.437 248.188, 268.364 248.188, 270.336 248.938 C 274.182 250.400, 276.589 250.269, 278.357 248.500 C 280.054 246.803, 283 246.486, 283 248 C 283 248.550, 284.589 249, 286.531 249 C 288.748 249, 290.277 249.559, 290.638 250.500 C 291.304 252.235, 300.476 252.657, 301.500 251 C 301.840 250.450, 304.116 250, 306.559 250 C 309.437 250, 311.005 249.560, 311.015 248.750 C 311.044 246.376, 312.773 244.764, 315.648 244.429 C 319.460 243.985, 320.844 244.968, 321.978 248.924 C 322.797 251.779, 322.664 252.275, 320.960 252.721 C 319.726 253.043, 319 254.090, 319 255.545 C 319 256.817, 318.325 258.532, 317.500 259.357 C 315.208 261.649, 315.685 262.225, 319.250 261.474 C 323.153 260.652, 323.847 260.087, 324.257 257.397 C 324.430 256.265, 325.793 254.116, 327.286 252.623 C 328.790 251.119, 330 248.795, 330 247.409 C 330 246.034, 331.012 243.861, 332.250 242.580 C 333.488 241.299, 335.223 239.407, 336.106 238.376 C 336.989 237.344, 338.875 235.669, 340.297 234.654 C 343.359 232.468, 344.901 227.186, 342.857 225.890 C 340.816 224.597, 339.940 224.779, 334.500 227.618 M 14 301.500 C 14 304.578, 12.223 304.777, 11.130 301.821 C 10.548 300.250, 10.139 301.825, 9.662 307.469 C 9.298 311.773, 8.554 315.832, 8.008 316.490 C 6.649 318.128, 6.558 336.306, 7.896 338.806 C 8.491 339.917, 8.796 342.709, 8.574 345.009 C 8.353 347.310, 8.776 350.837, 9.515 352.846 L 10.859 356.500 10.930 351.865 C 10.987 348.053, 11.449 346.936, 13.528 345.573 C 14.919 344.662, 16.494 344.187, 17.028 344.517 C 18.414 345.374, 18.231 341.613, 16.476 333.202 C 15.605 329.026, 14.903 320.152, 14.835 312.452 C 14.770 305.054, 14.555 299, 14.358 299 C 14.161 299, 14 300.125, 14 301.500 M 71.811 406.747 C 71.525 410.195, 71.229 410.526, 68.170 410.819 C 65.677 411.058, 64.985 411.519, 65.420 412.651 C 65.739 413.483, 66.007 414.464, 66.015 414.832 C 66.024 415.199, 66.467 414.825, 67 414 C 67.780 412.793, 67.972 412.951, 67.985 414.809 C 67.993 416.097, 67.558 416.845, 67 416.500 C 66.076 415.929, 65.888 416.357, 65.586 419.715 C 65.526 420.384, 64.612 421.563, 63.554 422.337 C 61.748 423.657, 61.924 423.873, 66.443 425.872 C 69.089 427.042, 72.070 428, 73.068 428 C 74.066 428, 75.160 428.450, 75.500 429 C 75.840 429.550, 77.351 430, 78.859 430 C 80.367 430, 82.084 430.484, 82.676 431.076 C 83.696 432.096, 91.083 432.482, 102.750 432.125 C 106.859 431.999, 108 431.612, 108 430.342 C 108 429.450, 107.320 428.221, 106.489 427.610 C 105.210 426.670, 105.172 425.990, 106.239 423.163 C 107.393 420.108, 107.309 419.671, 105.250 418.003 C 102.286 415.601, 102.411 415, 105.878 415 C 108.641 415, 111.897 412.564, 110.715 411.381 C 110.066 410.732, 99.631 409.856, 90.016 409.643 C 84.385 409.519, 83.481 409.237, 83.150 407.500 C 82.646 404.855, 81.007 403.861, 78.229 404.514 C 76.981 404.808, 75.095 404.586, 74.040 404.021 C 72.324 403.103, 72.088 403.392, 71.811 406.747 M 140.548 409.589 C 139.486 410.365, 137.590 411, 136.334 411 C 134.330 411, 134.123 411.367, 134.650 414 C 135.120 416.349, 134.897 417, 133.625 417 C 132.553 417, 132 417.861, 132 419.531 C 132 420.924, 131.312 422.327, 130.470 422.650 C 129.505 423.020, 129.161 423.931, 129.538 425.118 C 130.014 426.619, 129.627 427, 127.626 427 C 126.247 427, 124.871 427.399, 124.570 427.887 C 123.606 429.447, 126.534 430.957, 130.255 430.817 C 133.507 430.694, 135.080 429.814, 140.856 424.881 C 141.777 424.095, 142.019 422.523, 141.613 419.979 C 141.185 417.302, 141.440 415.880, 142.507 414.994 C 144.066 413.700, 144.555 409.461, 143.239 408.648 C 142.820 408.389, 141.609 408.812, 140.548 409.589" stroke="none" fill="#efbc54" fill-rule="evenodd"/>
</svg>