<svg width="15" height="15" viewBox="0 0 15 15" fill="none" xmlns="http://www.w3.org/2000/svg">
<path d="M7.5 0C3.43425 0 0 3.43425 0 7.5C0 11.5658 3.43425 15 7.5 15C11.5658 15 15 11.5658 15 7.5C15 3.43425 11.5658 0 7.5 0ZM7.5 3.75C8.79525 3.75 9.75 4.704 9.75 6C9.75 7.296 8.79525 8.25 7.5 8.25C6.2055 8.25 5.25 7.296 5.25 6C5.25 4.704 6.2055 3.75 7.5 3.75ZM3.6705 11.079C4.34325 10.089 5.46525 9.429 6.75 9.429H8.25C9.5355 9.429 10.6568 10.089 11.3295 11.079C10.371 12.105 9.01125 12.75 7.5 12.75C5.98875 12.75 4.629 12.105 3.6705 11.079Z" fill="#9B9B9B"/>
</svg>
