<svg width="15" height="15" viewBox="0 0 15 15" fill="none" xmlns="http://www.w3.org/2000/svg">
<path d="M7.50001 15C3.35787 15 0 11.6421 0 7.49996C0 3.35786 3.35787 0 7.50001 0C11.6421 0 15 3.35786 15 7.49996C15 11.6421 11.6421 15 7.50001 15ZM4.875 8.99996V10.5H6.75001V12H8.25001V10.5H9.00001C10.0355 10.5 10.875 9.66056 10.875 8.62496C10.875 7.58944 10.0355 6.74996 9.00001 6.74996H6.00001C5.79289 6.74996 5.625 6.58211 5.625 6.37496C5.625 6.16789 5.79289 5.99996 6.00001 5.99996H10.125V4.5H8.25001V3H6.75001V4.5H6.00001C4.96447 4.5 4.125 5.33946 4.125 6.37496C4.125 7.41056 4.96447 8.24996 6.00001 8.24996H9.00001C9.20709 8.24996 9.37501 8.41789 9.37501 8.62496C9.37501 8.83211 9.20709 8.99996 9.00001 8.99996H4.875Z" fill="#9A9B9B"/>
</svg>
